<?xml version="1.0" encoding="UTF-8" standalone="no"?>
<!-- Created with Inkscape (http://www.inkscape.org/) -->

<svg
   version="1.1"
   id="svg2"
   width="853.33331"
   height="512"
   viewBox="0 0 853.33331 512"
   sodipodi:docname="coar-grain.svg"
   inkscape:version="1.2 (dc2aedaf03, 2022-05-15)"
   xmlns:inkscape="http://www.inkscape.org/namespaces/inkscape"
   xmlns:sodipodi="http://sodipodi.sourceforge.net/DTD/sodipodi-0.dtd"
   xmlns="http://www.w3.org/2000/svg"
   xmlns:svg="http://www.w3.org/2000/svg">
  <defs
     id="defs6" />
  <sodipodi:namedview
     id="namedview4"
     pagecolor="#ffffff"
     bordercolor="#000000"
     borderopacity="0.25"
     inkscape:showpageshadow="2"
     inkscape:pageopacity="0.0"
     inkscape:pagecheckerboard="0"
     inkscape:deskcolor="#d1d1d1"
     showgrid="false"
     inkscape:zoom="1.4648438"
     inkscape:cx="427.00799"
     inkscape:cy="255.99999"
     inkscape:window-width="2048"
     inkscape:window-height="1089"
     inkscape:window-x="-8"
     inkscape:window-y="353"
     inkscape:window-maximized="1"
     inkscape:current-layer="g10">
    <inkscape:page
       x="0"
       y="0"
       id="page8"
       width="853.33331"
       height="512" />
  </sodipodi:namedview>
  <g
     id="g10"
     inkscape:groupmode="layer"
     inkscape:label="Page 1"
     transform="matrix(1.3333333,0,0,1.3333333,0,1.28e-5)">
    <g
       id="g12">
      <path
         d="M 0,0 H 640 V 384 H 0 Z"
         style="fill:#ffffff;fill-opacity:1;fill-rule:nonzero;stroke:none"
         id="path14" />
      <g
         id="g16">
        <path
           d="m 87,322 h 7"
           style="fill:none;stroke:#000000;stroke-width:1;stroke-linecap:butt;stroke-linejoin:miter;stroke-miterlimit:10;stroke-dasharray:none;stroke-opacity:1"
           id="path18" />
      </g>
      <g
         id="g20">
        <path
           d="m 615,322 h -8"
           style="fill:none;stroke:#000000;stroke-width:1;stroke-linecap:butt;stroke-linejoin:miter;stroke-miterlimit:10;stroke-dasharray:none;stroke-opacity:1"
           id="path22" />
      </g>
      <path
         d="m 71.527,323.164 c -0.004,-1.203 0.18,-2.246 0.547,-3.121 0.364,-0.871 0.848,-1.52 1.453,-1.949 0.469,-0.336 0.953,-0.504 1.453,-0.508 0.813,0.004 1.54,0.418 2.188,1.242 0.805,1.031 1.211,2.422 1.211,4.172 0,1.234 -0.18,2.277 -0.531,3.133 -0.36,0.863 -0.809,1.488 -1.356,1.871 -0.551,0.391 -1.082,0.582 -1.59,0.582 -1.011,0 -1.851,-0.594 -2.523,-1.789 -0.57,-1 -0.856,-2.211 -0.852,-3.633 z m 1.532,0.195 c 0,1.461 0.179,2.653 0.539,3.571 0.297,0.777 0.738,1.164 1.328,1.164 0.277,0 0.57,-0.125 0.875,-0.379 0.301,-0.25 0.527,-0.672 0.687,-1.27 0.235,-0.89 0.356,-2.156 0.36,-3.789 -0.004,-1.207 -0.129,-2.215 -0.375,-3.023 -0.192,-0.598 -0.434,-1.02 -0.727,-1.274 -0.215,-0.168 -0.473,-0.254 -0.773,-0.257 -0.356,0.003 -0.672,0.16 -0.946,0.476 -0.379,0.434 -0.632,1.113 -0.765,2.039 -0.137,0.93 -0.203,1.844 -0.203,2.742 z"
         style="fill:#000000;fill-opacity:1;fill-rule:nonzero;stroke:none"
         id="path24" />
      <g
         id="g26">
        <path
           d="m 87,289 h 7"
           style="fill:none;stroke:#000000;stroke-width:1;stroke-linecap:butt;stroke-linejoin:miter;stroke-miterlimit:10;stroke-dasharray:none;stroke-opacity:1"
           id="path28" />
      </g>
      <g
         id="g30">
        <path
           d="m 615,289 h -8"
           style="fill:none;stroke:#000000;stroke-width:1;stroke-linecap:butt;stroke-linejoin:miter;stroke-miterlimit:10;stroke-dasharray:none;stroke-opacity:1"
           id="path32" />
      </g>
      <path
         d="m 43.527,289.465 c -0.004,-1.203 0.18,-2.246 0.547,-3.121 0.364,-0.871 0.848,-1.52 1.453,-1.949 0.469,-0.336 0.953,-0.504 1.453,-0.508 0.813,0.004 1.54,0.418 2.188,1.242 0.805,1.031 1.211,2.422 1.211,4.172 0,1.234 -0.18,2.277 -0.531,3.133 -0.36,0.863 -0.809,1.488 -1.356,1.871 -0.551,0.39 -1.082,0.582 -1.59,0.582 -1.011,0 -1.851,-0.594 -2.523,-1.789 -0.57,-1 -0.856,-2.211 -0.852,-3.633 z m 1.532,0.195 c 0,1.461 0.179,2.653 0.539,3.57 0.297,0.778 0.738,1.165 1.328,1.165 0.277,0 0.57,-0.125 0.875,-0.379 0.301,-0.25 0.527,-0.672 0.687,-1.27 0.235,-0.891 0.356,-2.156 0.36,-3.789 -0.004,-1.207 -0.129,-2.215 -0.375,-3.023 -0.192,-0.598 -0.434,-1.02 -0.727,-1.274 -0.215,-0.168 -0.473,-0.254 -0.773,-0.258 -0.356,0.004 -0.672,0.161 -0.946,0.477 -0.379,0.434 -0.632,1.113 -0.765,2.039 -0.137,0.93 -0.203,1.844 -0.203,2.742 z"
         style="fill:#000000;fill-opacity:1;fill-rule:nonzero;stroke:none"
         id="path34" />
      <path
         d="m 52.949,293.184 c 0.242,0.004 0.449,0.089 0.617,0.254 0.164,0.171 0.247,0.375 0.25,0.613 -0.003,0.242 -0.086,0.445 -0.253,0.613 -0.172,0.168 -0.379,0.25 -0.614,0.254 -0.242,-0.004 -0.445,-0.086 -0.613,-0.254 -0.172,-0.168 -0.258,-0.371 -0.254,-0.613 -0.004,-0.242 0.082,-0.449 0.254,-0.617 0.168,-0.164 0.371,-0.246 0.613,-0.25 z"
         style="fill:#000000;fill-opacity:1;fill-rule:nonzero;stroke:none"
         id="path36" />
      <path
         d="m 55.527,289.465 c -0.004,-1.203 0.18,-2.246 0.547,-3.121 0.364,-0.871 0.848,-1.52 1.453,-1.949 0.469,-0.336 0.953,-0.504 1.453,-0.508 0.813,0.004 1.54,0.418 2.188,1.242 0.805,1.031 1.211,2.422 1.211,4.172 0,1.234 -0.18,2.277 -0.531,3.133 -0.36,0.863 -0.809,1.488 -1.356,1.871 -0.551,0.39 -1.082,0.582 -1.59,0.582 -1.011,0 -1.851,-0.594 -2.523,-1.789 -0.57,-1 -0.856,-2.211 -0.852,-3.633 z m 1.532,0.195 c 0,1.461 0.179,2.653 0.539,3.57 0.297,0.778 0.738,1.165 1.328,1.165 0.277,0 0.57,-0.125 0.875,-0.379 0.301,-0.25 0.527,-0.672 0.687,-1.27 0.235,-0.891 0.356,-2.156 0.36,-3.789 -0.004,-1.207 -0.129,-2.215 -0.375,-3.023 -0.192,-0.598 -0.434,-1.02 -0.727,-1.274 -0.215,-0.168 -0.473,-0.254 -0.773,-0.258 -0.356,0.004 -0.672,0.161 -0.946,0.477 -0.379,0.434 -0.632,1.113 -0.765,2.039 -0.137,0.93 -0.203,1.844 -0.203,2.742 z"
         style="fill:#000000;fill-opacity:1;fill-rule:nonzero;stroke:none"
         id="path38" />
      <path
         d="m 63.527,289.465 c -0.004,-1.203 0.18,-2.246 0.547,-3.121 0.364,-0.871 0.848,-1.52 1.453,-1.949 0.469,-0.336 0.953,-0.504 1.453,-0.508 0.813,0.004 1.54,0.418 2.188,1.242 0.805,1.031 1.211,2.422 1.211,4.172 0,1.234 -0.18,2.277 -0.531,3.133 -0.36,0.863 -0.809,1.488 -1.356,1.871 -0.551,0.39 -1.082,0.582 -1.59,0.582 -1.011,0 -1.851,-0.594 -2.523,-1.789 -0.57,-1 -0.856,-2.211 -0.852,-3.633 z m 1.532,0.195 c 0,1.461 0.179,2.653 0.539,3.57 0.297,0.778 0.738,1.165 1.328,1.165 0.277,0 0.57,-0.125 0.875,-0.379 0.301,-0.25 0.527,-0.672 0.687,-1.27 0.235,-0.891 0.356,-2.156 0.36,-3.789 -0.004,-1.207 -0.129,-2.215 -0.375,-3.023 -0.192,-0.598 -0.434,-1.02 -0.727,-1.274 -0.215,-0.168 -0.473,-0.254 -0.773,-0.258 -0.356,0.004 -0.672,0.161 -0.946,0.477 -0.379,0.434 -0.632,1.113 -0.765,2.039 -0.137,0.93 -0.203,1.844 -0.203,2.742 z"
         style="fill:#000000;fill-opacity:1;fill-rule:nonzero;stroke:none"
         id="path40" />
      <path
         d="m 78.285,292.66 -0.742,2.039 h -6.25 v -0.289 c 1.836,-1.672 3.129,-3.043 3.883,-4.109 0.746,-1.059 1.121,-2.031 1.125,-2.914 -0.004,-0.672 -0.207,-1.223 -0.617,-1.657 -0.414,-0.429 -0.907,-0.644 -1.477,-0.648 -0.523,0.004 -0.992,0.156 -1.402,0.457 -0.418,0.309 -0.723,0.754 -0.918,1.34 h -0.289 c 0.129,-0.961 0.465,-1.699 1.004,-2.219 0.539,-0.512 1.211,-0.769 2.019,-0.773 0.856,0.004 1.574,0.277 2.152,0.828 0.575,0.555 0.86,1.207 0.864,1.953 -0.004,0.539 -0.129,1.074 -0.375,1.609 -0.391,0.844 -1.016,1.739 -1.875,2.68 -1.301,1.418 -2.11,2.273 -2.43,2.563 h 2.766 c 0.558,0.003 0.953,-0.02 1.183,-0.063 0.223,-0.039 0.426,-0.121 0.614,-0.254 0.179,-0.125 0.339,-0.308 0.476,-0.543 z"
         style="fill:#000000;fill-opacity:1;fill-rule:nonzero;stroke:none"
         id="path42" />
      <g
         id="g44">
        <path
           d="m 87,255 h 7"
           style="fill:none;stroke:#000000;stroke-width:1;stroke-linecap:butt;stroke-linejoin:miter;stroke-miterlimit:10;stroke-dasharray:none;stroke-opacity:1"
           id="path46" />
      </g>
      <g
         id="g48">
        <path
           d="m 615,255 h -8"
           style="fill:none;stroke:#000000;stroke-width:1;stroke-linecap:butt;stroke-linejoin:miter;stroke-miterlimit:10;stroke-dasharray:none;stroke-opacity:1"
           id="path50" />
      </g>
      <path
         d="m 43.527,255.766 c -0.004,-1.203 0.18,-2.246 0.547,-3.121 0.364,-0.872 0.848,-1.52 1.453,-1.95 0.469,-0.336 0.953,-0.504 1.453,-0.507 0.813,0.003 1.54,0.417 2.188,1.242 0.805,1.031 1.211,2.422 1.211,4.172 0,1.234 -0.18,2.277 -0.531,3.132 -0.36,0.864 -0.809,1.489 -1.356,1.871 -0.551,0.391 -1.082,0.583 -1.59,0.583 -1.011,0 -1.851,-0.594 -2.523,-1.79 -0.57,-1 -0.856,-2.21 -0.852,-3.632 z m 1.532,0.195 c 0,1.461 0.179,2.652 0.539,3.57 0.297,0.778 0.738,1.164 1.328,1.164 0.277,0 0.57,-0.125 0.875,-0.379 0.301,-0.25 0.527,-0.671 0.687,-1.269 0.235,-0.891 0.356,-2.156 0.36,-3.789 -0.004,-1.207 -0.129,-2.215 -0.375,-3.024 -0.192,-0.597 -0.434,-1.019 -0.727,-1.273 -0.215,-0.168 -0.473,-0.254 -0.773,-0.258 -0.356,0.004 -0.672,0.16 -0.946,0.477 -0.379,0.433 -0.632,1.113 -0.765,2.039 -0.137,0.929 -0.203,1.844 -0.203,2.742 z"
         style="fill:#000000;fill-opacity:1;fill-rule:nonzero;stroke:none"
         id="path52" />
      <path
         d="m 52.949,259.484 c 0.242,0.004 0.449,0.09 0.617,0.254 0.164,0.172 0.247,0.375 0.25,0.614 -0.003,0.242 -0.086,0.445 -0.253,0.613 -0.172,0.168 -0.379,0.25 -0.614,0.254 -0.242,-0.004 -0.445,-0.086 -0.613,-0.254 -0.172,-0.168 -0.258,-0.371 -0.254,-0.613 -0.004,-0.243 0.082,-0.45 0.254,-0.618 0.168,-0.164 0.371,-0.246 0.613,-0.25 z"
         style="fill:#000000;fill-opacity:1;fill-rule:nonzero;stroke:none"
         id="path54" />
      <path
         d="m 55.527,255.766 c -0.004,-1.203 0.18,-2.246 0.547,-3.121 0.364,-0.872 0.848,-1.52 1.453,-1.95 0.469,-0.336 0.953,-0.504 1.453,-0.507 0.813,0.003 1.54,0.417 2.188,1.242 0.805,1.031 1.211,2.422 1.211,4.172 0,1.234 -0.18,2.277 -0.531,3.132 -0.36,0.864 -0.809,1.489 -1.356,1.871 -0.551,0.391 -1.082,0.583 -1.59,0.583 -1.011,0 -1.851,-0.594 -2.523,-1.79 -0.57,-1 -0.856,-2.21 -0.852,-3.632 z m 1.532,0.195 c 0,1.461 0.179,2.652 0.539,3.57 0.297,0.778 0.738,1.164 1.328,1.164 0.277,0 0.57,-0.125 0.875,-0.379 0.301,-0.25 0.527,-0.671 0.687,-1.269 0.235,-0.891 0.356,-2.156 0.36,-3.789 -0.004,-1.207 -0.129,-2.215 -0.375,-3.024 -0.192,-0.597 -0.434,-1.019 -0.727,-1.273 -0.215,-0.168 -0.473,-0.254 -0.773,-0.258 -0.356,0.004 -0.672,0.16 -0.946,0.477 -0.379,0.433 -0.632,1.113 -0.765,2.039 -0.137,0.929 -0.203,1.844 -0.203,2.742 z"
         style="fill:#000000;fill-opacity:1;fill-rule:nonzero;stroke:none"
         id="path56" />
      <path
         d="m 63.527,255.766 c -0.004,-1.203 0.18,-2.246 0.547,-3.121 0.364,-0.872 0.848,-1.52 1.453,-1.95 0.469,-0.336 0.953,-0.504 1.453,-0.507 0.813,0.003 1.54,0.417 2.188,1.242 0.805,1.031 1.211,2.422 1.211,4.172 0,1.234 -0.18,2.277 -0.531,3.132 -0.36,0.864 -0.809,1.489 -1.356,1.871 -0.551,0.391 -1.082,0.583 -1.59,0.583 -1.011,0 -1.851,-0.594 -2.523,-1.79 -0.57,-1 -0.856,-2.21 -0.852,-3.632 z m 1.532,0.195 c 0,1.461 0.179,2.652 0.539,3.57 0.297,0.778 0.738,1.164 1.328,1.164 0.277,0 0.57,-0.125 0.875,-0.379 0.301,-0.25 0.527,-0.671 0.687,-1.269 0.235,-0.891 0.356,-2.156 0.36,-3.789 -0.004,-1.207 -0.129,-2.215 -0.375,-3.024 -0.192,-0.597 -0.434,-1.019 -0.727,-1.273 -0.215,-0.168 -0.473,-0.254 -0.773,-0.258 -0.356,0.004 -0.672,0.16 -0.946,0.477 -0.379,0.433 -0.632,1.113 -0.765,2.039 -0.137,0.929 -0.203,1.844 -0.203,2.742 z"
         style="fill:#000000;fill-opacity:1;fill-rule:nonzero;stroke:none"
         id="path58" />
      <path
         d="m 78.395,257.094 v 1.109 H 76.973 V 261 h -1.289 v -2.797 h -4.485 v -1 l 4.914,-7.015 h 0.86 v 6.906 z m -2.711,0 v -5.258 l -3.719,5.258 z"
         style="fill:#000000;fill-opacity:1;fill-rule:nonzero;stroke:none"
         id="path60" />
      <g
         id="g62">
        <path
           d="m 87,221 h 7"
           style="fill:none;stroke:#000000;stroke-width:1;stroke-linecap:butt;stroke-linejoin:miter;stroke-miterlimit:10;stroke-dasharray:none;stroke-opacity:1"
           id="path64" />
      </g>
      <g
         id="g66">
        <path
           d="m 615,221 h -8"
           style="fill:none;stroke:#000000;stroke-width:1;stroke-linecap:butt;stroke-linejoin:miter;stroke-miterlimit:10;stroke-dasharray:none;stroke-opacity:1"
           id="path68" />
      </g>
      <path
         d="m 43.527,222.016 c -0.004,-1.203 0.18,-2.246 0.547,-3.121 0.364,-0.872 0.848,-1.52 1.453,-1.95 0.469,-0.336 0.953,-0.504 1.453,-0.507 0.813,0.003 1.54,0.417 2.188,1.242 0.805,1.031 1.211,2.422 1.211,4.172 0,1.234 -0.18,2.277 -0.531,3.132 -0.36,0.864 -0.809,1.489 -1.356,1.871 -0.551,0.391 -1.082,0.583 -1.59,0.583 -1.011,0 -1.851,-0.594 -2.523,-1.79 -0.57,-1 -0.856,-2.21 -0.852,-3.632 z m 1.532,0.195 c 0,1.461 0.179,2.652 0.539,3.57 0.297,0.778 0.738,1.164 1.328,1.164 0.277,0 0.57,-0.125 0.875,-0.379 0.301,-0.25 0.527,-0.671 0.687,-1.269 0.235,-0.891 0.356,-2.156 0.36,-3.789 -0.004,-1.207 -0.129,-2.215 -0.375,-3.024 -0.192,-0.597 -0.434,-1.019 -0.727,-1.273 -0.215,-0.168 -0.473,-0.254 -0.773,-0.258 -0.356,0.004 -0.672,0.16 -0.946,0.477 -0.379,0.433 -0.632,1.113 -0.765,2.039 -0.137,0.929 -0.203,1.844 -0.203,2.742 z"
         style="fill:#000000;fill-opacity:1;fill-rule:nonzero;stroke:none"
         id="path70" />
      <path
         d="m 52.949,225.734 c 0.242,0.004 0.449,0.09 0.617,0.254 0.164,0.172 0.247,0.375 0.25,0.614 -0.003,0.242 -0.086,0.445 -0.253,0.613 -0.172,0.168 -0.379,0.25 -0.614,0.254 -0.242,-0.004 -0.445,-0.086 -0.613,-0.254 -0.172,-0.168 -0.258,-0.371 -0.254,-0.613 -0.004,-0.243 0.082,-0.45 0.254,-0.618 0.168,-0.164 0.371,-0.246 0.613,-0.25 z"
         style="fill:#000000;fill-opacity:1;fill-rule:nonzero;stroke:none"
         id="path72" />
      <path
         d="m 55.527,222.016 c -0.004,-1.203 0.18,-2.246 0.547,-3.121 0.364,-0.872 0.848,-1.52 1.453,-1.95 0.469,-0.336 0.953,-0.504 1.453,-0.507 0.813,0.003 1.54,0.417 2.188,1.242 0.805,1.031 1.211,2.422 1.211,4.172 0,1.234 -0.18,2.277 -0.531,3.132 -0.36,0.864 -0.809,1.489 -1.356,1.871 -0.551,0.391 -1.082,0.583 -1.59,0.583 -1.011,0 -1.851,-0.594 -2.523,-1.79 -0.57,-1 -0.856,-2.21 -0.852,-3.632 z m 1.532,0.195 c 0,1.461 0.179,2.652 0.539,3.57 0.297,0.778 0.738,1.164 1.328,1.164 0.277,0 0.57,-0.125 0.875,-0.379 0.301,-0.25 0.527,-0.671 0.687,-1.269 0.235,-0.891 0.356,-2.156 0.36,-3.789 -0.004,-1.207 -0.129,-2.215 -0.375,-3.024 -0.192,-0.597 -0.434,-1.019 -0.727,-1.273 -0.215,-0.168 -0.473,-0.254 -0.773,-0.258 -0.356,0.004 -0.672,0.16 -0.946,0.477 -0.379,0.433 -0.632,1.113 -0.765,2.039 -0.137,0.929 -0.203,1.844 -0.203,2.742 z"
         style="fill:#000000;fill-opacity:1;fill-rule:nonzero;stroke:none"
         id="path74" />
      <path
         d="m 63.527,222.016 c -0.004,-1.203 0.18,-2.246 0.547,-3.121 0.364,-0.872 0.848,-1.52 1.453,-1.95 0.469,-0.336 0.953,-0.504 1.453,-0.507 0.813,0.003 1.54,0.417 2.188,1.242 0.805,1.031 1.211,2.422 1.211,4.172 0,1.234 -0.18,2.277 -0.531,3.132 -0.36,0.864 -0.809,1.489 -1.356,1.871 -0.551,0.391 -1.082,0.583 -1.59,0.583 -1.011,0 -1.851,-0.594 -2.523,-1.79 -0.57,-1 -0.856,-2.21 -0.852,-3.632 z m 1.532,0.195 c 0,1.461 0.179,2.652 0.539,3.57 0.297,0.778 0.738,1.164 1.328,1.164 0.277,0 0.57,-0.125 0.875,-0.379 0.301,-0.25 0.527,-0.671 0.687,-1.269 0.235,-0.891 0.356,-2.156 0.36,-3.789 -0.004,-1.207 -0.129,-2.215 -0.375,-3.024 -0.192,-0.597 -0.434,-1.019 -0.727,-1.273 -0.215,-0.168 -0.473,-0.254 -0.773,-0.258 -0.356,0.004 -0.672,0.16 -0.946,0.477 -0.379,0.433 -0.632,1.113 -0.765,2.039 -0.137,0.929 -0.203,1.844 -0.203,2.742 z"
         style="fill:#000000;fill-opacity:1;fill-rule:nonzero;stroke:none"
         id="path76" />
      <path
         d="m 78.121,216.438 v 0.289 c -0.687,0.07 -1.25,0.207 -1.683,0.41 -0.438,0.207 -0.868,0.523 -1.29,0.941 -0.425,0.426 -0.777,0.895 -1.054,1.41 -0.281,0.52 -0.516,1.137 -0.699,1.848 0.746,-0.512 1.5,-0.77 2.257,-0.773 0.723,0.003 1.352,0.292 1.883,0.875 0.531,0.585 0.797,1.335 0.797,2.25 0,0.886 -0.269,1.695 -0.805,2.421 -0.648,0.887 -1.504,1.329 -2.562,1.329 -0.727,0 -1.34,-0.239 -1.844,-0.719 -0.992,-0.93 -1.488,-2.137 -1.484,-3.625 -0.004,-0.946 0.187,-1.848 0.57,-2.703 0.379,-0.852 0.922,-1.61 1.629,-2.274 0.703,-0.66 1.379,-1.105 2.027,-1.336 0.645,-0.226 1.246,-0.34 1.805,-0.343 z m -4.859,5.468 c -0.098,0.703 -0.145,1.274 -0.141,1.703 -0.004,0.504 0.09,1.047 0.277,1.629 0.184,0.59 0.457,1.055 0.825,1.395 0.261,0.25 0.586,0.371 0.968,0.367 0.454,0.004 0.856,-0.211 1.215,-0.641 0.352,-0.425 0.532,-1.035 0.535,-1.828 -0.003,-0.89 -0.179,-1.66 -0.531,-2.312 -0.355,-0.649 -0.859,-0.973 -1.508,-0.977 -0.199,0.004 -0.41,0.043 -0.636,0.125 -0.227,0.086 -0.563,0.266 -1.004,0.539 z"
         style="fill:#000000;fill-opacity:1;fill-rule:nonzero;stroke:none"
         id="path78" />
      <g
         id="g80">
        <path
           d="m 87,188 h 7"
           style="fill:none;stroke:#000000;stroke-width:1;stroke-linecap:butt;stroke-linejoin:miter;stroke-miterlimit:10;stroke-dasharray:none;stroke-opacity:1"
           id="path82" />
      </g>
      <g
         id="g84">
        <path
           d="m 615,188 h -8"
           style="fill:none;stroke:#000000;stroke-width:1;stroke-linecap:butt;stroke-linejoin:miter;stroke-miterlimit:10;stroke-dasharray:none;stroke-opacity:1"
           id="path86" />
      </g>
      <path
         d="m 43.527,188.316 c -0.004,-1.203 0.18,-2.246 0.547,-3.121 0.364,-0.871 0.848,-1.519 1.453,-1.949 0.469,-0.336 0.953,-0.504 1.453,-0.508 0.813,0.004 1.54,0.418 2.188,1.242 0.805,1.032 1.211,2.422 1.211,4.172 0,1.235 -0.18,2.278 -0.531,3.133 -0.36,0.863 -0.809,1.488 -1.356,1.871 -0.551,0.391 -1.082,0.582 -1.59,0.582 -1.011,0 -1.851,-0.593 -2.523,-1.789 -0.57,-1 -0.856,-2.211 -0.852,-3.633 z m 1.532,0.196 c 0,1.461 0.179,2.652 0.539,3.57 0.297,0.777 0.738,1.164 1.328,1.164 0.277,0 0.57,-0.125 0.875,-0.379 0.301,-0.25 0.527,-0.672 0.687,-1.269 0.235,-0.891 0.356,-2.157 0.36,-3.789 -0.004,-1.207 -0.129,-2.215 -0.375,-3.024 -0.192,-0.597 -0.434,-1.019 -0.727,-1.273 -0.215,-0.168 -0.473,-0.254 -0.773,-0.258 -0.356,0.004 -0.672,0.16 -0.946,0.476 -0.379,0.434 -0.632,1.114 -0.765,2.04 -0.137,0.929 -0.203,1.843 -0.203,2.742 z"
         style="fill:#000000;fill-opacity:1;fill-rule:nonzero;stroke:none"
         id="path88" />
      <path
         d="m 52.949,192.035 c 0.242,0.004 0.449,0.09 0.617,0.254 0.164,0.172 0.247,0.375 0.25,0.613 -0.003,0.243 -0.086,0.446 -0.253,0.614 -0.172,0.168 -0.379,0.25 -0.614,0.254 -0.242,-0.004 -0.445,-0.086 -0.613,-0.254 -0.172,-0.168 -0.258,-0.371 -0.254,-0.614 -0.004,-0.242 0.082,-0.449 0.254,-0.617 0.168,-0.164 0.371,-0.246 0.613,-0.25 z"
         style="fill:#000000;fill-opacity:1;fill-rule:nonzero;stroke:none"
         id="path90" />
      <path
         d="m 55.527,188.316 c -0.004,-1.203 0.18,-2.246 0.547,-3.121 0.364,-0.871 0.848,-1.519 1.453,-1.949 0.469,-0.336 0.953,-0.504 1.453,-0.508 0.813,0.004 1.54,0.418 2.188,1.242 0.805,1.032 1.211,2.422 1.211,4.172 0,1.235 -0.18,2.278 -0.531,3.133 -0.36,0.863 -0.809,1.488 -1.356,1.871 -0.551,0.391 -1.082,0.582 -1.59,0.582 -1.011,0 -1.851,-0.593 -2.523,-1.789 -0.57,-1 -0.856,-2.211 -0.852,-3.633 z m 1.532,0.196 c 0,1.461 0.179,2.652 0.539,3.57 0.297,0.777 0.738,1.164 1.328,1.164 0.277,0 0.57,-0.125 0.875,-0.379 0.301,-0.25 0.527,-0.672 0.687,-1.269 0.235,-0.891 0.356,-2.157 0.36,-3.789 -0.004,-1.207 -0.129,-2.215 -0.375,-3.024 -0.192,-0.597 -0.434,-1.019 -0.727,-1.273 -0.215,-0.168 -0.473,-0.254 -0.773,-0.258 -0.356,0.004 -0.672,0.16 -0.946,0.476 -0.379,0.434 -0.632,1.114 -0.765,2.04 -0.137,0.929 -0.203,1.843 -0.203,2.742 z"
         style="fill:#000000;fill-opacity:1;fill-rule:nonzero;stroke:none"
         id="path92" />
      <path
         d="m 63.527,188.316 c -0.004,-1.203 0.18,-2.246 0.547,-3.121 0.364,-0.871 0.848,-1.519 1.453,-1.949 0.469,-0.336 0.953,-0.504 1.453,-0.508 0.813,0.004 1.54,0.418 2.188,1.242 0.805,1.032 1.211,2.422 1.211,4.172 0,1.235 -0.18,2.278 -0.531,3.133 -0.36,0.863 -0.809,1.488 -1.356,1.871 -0.551,0.391 -1.082,0.582 -1.59,0.582 -1.011,0 -1.851,-0.593 -2.523,-1.789 -0.57,-1 -0.856,-2.211 -0.852,-3.633 z m 1.532,0.196 c 0,1.461 0.179,2.652 0.539,3.57 0.297,0.777 0.738,1.164 1.328,1.164 0.277,0 0.57,-0.125 0.875,-0.379 0.301,-0.25 0.527,-0.672 0.687,-1.269 0.235,-0.891 0.356,-2.157 0.36,-3.789 -0.004,-1.207 -0.129,-2.215 -0.375,-3.024 -0.192,-0.597 -0.434,-1.019 -0.727,-1.273 -0.215,-0.168 -0.473,-0.254 -0.773,-0.258 -0.356,0.004 -0.672,0.16 -0.946,0.476 -0.379,0.434 -0.632,1.114 -0.765,2.04 -0.137,0.929 -0.203,1.843 -0.203,2.742 z"
         style="fill:#000000;fill-opacity:1;fill-rule:nonzero;stroke:none"
         id="path94" />
      <path
         d="m 74.02,188.215 c -0.84,-0.684 -1.383,-1.235 -1.622,-1.656 -0.246,-0.414 -0.367,-0.848 -0.363,-1.297 -0.004,-0.684 0.262,-1.278 0.797,-1.778 0.527,-0.496 1.234,-0.742 2.117,-0.746 0.852,0.004 1.539,0.235 2.063,0.696 0.519,0.464 0.781,0.992 0.781,1.586 0,0.398 -0.141,0.804 -0.422,1.21 -0.281,0.415 -0.867,0.899 -1.758,1.454 0.914,0.711 1.52,1.265 1.821,1.671 0.394,0.532 0.593,1.094 0.593,1.68 0,0.75 -0.285,1.387 -0.851,1.91 -0.571,0.532 -1.317,0.793 -2.235,0.793 -1.007,0 -1.789,-0.312 -2.351,-0.945 -0.449,-0.5 -0.676,-1.055 -0.672,-1.656 -0.004,-0.469 0.156,-0.934 0.473,-1.395 0.312,-0.461 0.855,-0.969 1.629,-1.527 z m 1.226,-0.836 c 0.621,-0.559 1.02,-1.004 1.188,-1.332 0.164,-0.324 0.246,-0.692 0.25,-1.106 -0.004,-0.543 -0.157,-0.972 -0.461,-1.285 -0.309,-0.308 -0.731,-0.465 -1.258,-0.465 -0.535,0 -0.965,0.157 -1.297,0.461 -0.336,0.313 -0.504,0.672 -0.5,1.078 -0.004,0.274 0.066,0.543 0.207,0.813 0.137,0.273 0.332,0.531 0.59,0.773 z m -0.859,1.133 c -0.434,0.367 -0.754,0.765 -0.961,1.191 -0.211,0.434 -0.317,0.899 -0.313,1.395 -0.004,0.675 0.18,1.215 0.551,1.613 0.363,0.406 0.832,0.605 1.402,0.605 0.559,0 1.008,-0.156 1.352,-0.476 0.336,-0.313 0.508,-0.699 0.508,-1.156 0,-0.371 -0.102,-0.707 -0.297,-1.008 -0.375,-0.551 -1.121,-1.274 -2.242,-2.164 z"
         style="fill:#000000;fill-opacity:1;fill-rule:nonzero;stroke:none"
         id="path96" />
      <g
         id="g98">
        <path
           d="m 87,154 h 7"
           style="fill:none;stroke:#000000;stroke-width:1;stroke-linecap:butt;stroke-linejoin:miter;stroke-miterlimit:10;stroke-dasharray:none;stroke-opacity:1"
           id="path100" />
      </g>
      <g
         id="g102">
        <path
           d="m 615,154 h -8"
           style="fill:none;stroke:#000000;stroke-width:1;stroke-linecap:butt;stroke-linejoin:miter;stroke-miterlimit:10;stroke-dasharray:none;stroke-opacity:1"
           id="path104" />
      </g>
      <path
         d="m 51.527,154.617 c -0.004,-1.203 0.18,-2.246 0.547,-3.121 0.364,-0.871 0.848,-1.519 1.453,-1.949 0.469,-0.336 0.953,-0.504 1.453,-0.508 0.813,0.004 1.54,0.418 2.188,1.242 0.805,1.032 1.211,2.422 1.211,4.172 0,1.235 -0.18,2.277 -0.531,3.133 -0.36,0.863 -0.809,1.488 -1.356,1.871 -0.551,0.391 -1.082,0.582 -1.59,0.582 -1.011,0 -1.851,-0.594 -2.523,-1.789 -0.57,-1 -0.856,-2.211 -0.852,-3.633 z m 1.532,0.196 c 0,1.46 0.179,2.652 0.539,3.57 0.297,0.777 0.738,1.164 1.328,1.164 0.277,0 0.57,-0.125 0.875,-0.379 0.301,-0.25 0.527,-0.672 0.687,-1.27 0.235,-0.89 0.356,-2.156 0.36,-3.789 -0.004,-1.207 -0.129,-2.214 -0.375,-3.023 -0.192,-0.598 -0.434,-1.02 -0.727,-1.273 -0.215,-0.168 -0.473,-0.254 -0.773,-0.258 -0.356,0.004 -0.672,0.16 -0.946,0.476 -0.379,0.434 -0.632,1.114 -0.765,2.039 -0.137,0.93 -0.203,1.844 -0.203,2.743 z"
         style="fill:#000000;fill-opacity:1;fill-rule:nonzero;stroke:none"
         id="path106" />
      <path
         d="m 60.949,158.336 c 0.242,0.004 0.449,0.09 0.617,0.254 0.164,0.172 0.247,0.375 0.25,0.613 -0.003,0.242 -0.086,0.445 -0.253,0.613 -0.172,0.168 -0.379,0.25 -0.614,0.254 -0.242,-0.004 -0.445,-0.086 -0.613,-0.254 -0.172,-0.168 -0.258,-0.371 -0.254,-0.613 -0.004,-0.242 0.082,-0.449 0.254,-0.617 0.168,-0.164 0.371,-0.246 0.613,-0.25 z"
         style="fill:#000000;fill-opacity:1;fill-rule:nonzero;stroke:none"
         id="path108" />
      <path
         d="m 63.527,154.617 c -0.004,-1.203 0.18,-2.246 0.547,-3.121 0.364,-0.871 0.848,-1.519 1.453,-1.949 0.469,-0.336 0.953,-0.504 1.453,-0.508 0.813,0.004 1.54,0.418 2.188,1.242 0.805,1.032 1.211,2.422 1.211,4.172 0,1.235 -0.18,2.277 -0.531,3.133 -0.36,0.863 -0.809,1.488 -1.356,1.871 -0.551,0.391 -1.082,0.582 -1.59,0.582 -1.011,0 -1.851,-0.594 -2.523,-1.789 -0.57,-1 -0.856,-2.211 -0.852,-3.633 z m 1.532,0.196 c 0,1.46 0.179,2.652 0.539,3.57 0.297,0.777 0.738,1.164 1.328,1.164 0.277,0 0.57,-0.125 0.875,-0.379 0.301,-0.25 0.527,-0.672 0.687,-1.27 0.235,-0.89 0.356,-2.156 0.36,-3.789 -0.004,-1.207 -0.129,-2.214 -0.375,-3.023 -0.192,-0.598 -0.434,-1.02 -0.727,-1.273 -0.215,-0.168 -0.473,-0.254 -0.773,-0.258 -0.356,0.004 -0.672,0.16 -0.946,0.476 -0.379,0.434 -0.632,1.114 -0.765,2.039 -0.137,0.93 -0.203,1.844 -0.203,2.743 z"
         style="fill:#000000;fill-opacity:1;fill-rule:nonzero;stroke:none"
         id="path110" />
      <path
         d="m 72.824,150.297 2.578,-1.258 h 0.258 v 8.945 c 0,0.598 0.024,0.969 0.074,1.11 0.047,0.148 0.149,0.258 0.309,0.336 0.152,0.078 0.473,0.125 0.953,0.133 v 0.289 h -3.984 v -0.289 c 0.5,-0.008 0.82,-0.051 0.968,-0.129 0.141,-0.071 0.243,-0.172 0.305,-0.305 0.055,-0.125 0.086,-0.508 0.086,-1.145 v -5.718 c 0,-0.77 -0.027,-1.266 -0.078,-1.485 -0.039,-0.164 -0.105,-0.285 -0.199,-0.367 -0.098,-0.074 -0.215,-0.113 -0.348,-0.117 -0.195,0.004 -0.461,0.086 -0.805,0.242 z"
         style="fill:#000000;fill-opacity:1;fill-rule:nonzero;stroke:none"
         id="path112" />
      <g
         id="g114">
        <path
           d="m 87,120 h 7"
           style="fill:none;stroke:#000000;stroke-width:1;stroke-linecap:butt;stroke-linejoin:miter;stroke-miterlimit:10;stroke-dasharray:none;stroke-opacity:1"
           id="path116" />
      </g>
      <g
         id="g118">
        <path
           d="m 615,120 h -8"
           style="fill:none;stroke:#000000;stroke-width:1;stroke-linecap:butt;stroke-linejoin:miter;stroke-miterlimit:10;stroke-dasharray:none;stroke-opacity:1"
           id="path120" />
      </g>
      <path
         d="m 43.527,120.914 c -0.004,-1.203 0.18,-2.246 0.547,-3.121 0.364,-0.871 0.848,-1.52 1.453,-1.949 0.469,-0.336 0.953,-0.504 1.453,-0.508 0.813,0.004 1.54,0.418 2.188,1.242 0.805,1.031 1.211,2.422 1.211,4.172 0,1.234 -0.18,2.277 -0.531,3.133 -0.36,0.863 -0.809,1.488 -1.356,1.871 -0.551,0.391 -1.082,0.582 -1.59,0.582 -1.011,0 -1.851,-0.594 -2.523,-1.789 -0.57,-1 -0.856,-2.211 -0.852,-3.633 z m 1.532,0.195 c 0,1.461 0.179,2.653 0.539,3.571 0.297,0.777 0.738,1.164 1.328,1.164 0.277,0 0.57,-0.125 0.875,-0.379 0.301,-0.25 0.527,-0.672 0.687,-1.27 0.235,-0.89 0.356,-2.156 0.36,-3.789 -0.004,-1.207 -0.129,-2.215 -0.375,-3.023 -0.192,-0.598 -0.434,-1.02 -0.727,-1.274 -0.215,-0.168 -0.473,-0.254 -0.773,-0.257 -0.356,0.003 -0.672,0.16 -0.946,0.476 -0.379,0.434 -0.632,1.113 -0.765,2.039 -0.137,0.93 -0.203,1.844 -0.203,2.742 z"
         style="fill:#000000;fill-opacity:1;fill-rule:nonzero;stroke:none"
         id="path122" />
      <path
         d="m 52.949,124.633 c 0.242,0.004 0.449,0.09 0.617,0.254 0.164,0.172 0.247,0.375 0.25,0.613 -0.003,0.242 -0.086,0.445 -0.253,0.613 -0.172,0.168 -0.379,0.25 -0.614,0.254 -0.242,-0.004 -0.445,-0.086 -0.613,-0.254 -0.172,-0.168 -0.258,-0.371 -0.254,-0.613 -0.004,-0.242 0.082,-0.449 0.254,-0.617 0.168,-0.164 0.371,-0.246 0.613,-0.25 z"
         style="fill:#000000;fill-opacity:1;fill-rule:nonzero;stroke:none"
         id="path124" />
      <path
         d="m 55.527,120.914 c -0.004,-1.203 0.18,-2.246 0.547,-3.121 0.364,-0.871 0.848,-1.52 1.453,-1.949 0.469,-0.336 0.953,-0.504 1.453,-0.508 0.813,0.004 1.54,0.418 2.188,1.242 0.805,1.031 1.211,2.422 1.211,4.172 0,1.234 -0.18,2.277 -0.531,3.133 -0.36,0.863 -0.809,1.488 -1.356,1.871 -0.551,0.391 -1.082,0.582 -1.59,0.582 -1.011,0 -1.851,-0.594 -2.523,-1.789 -0.57,-1 -0.856,-2.211 -0.852,-3.633 z m 1.532,0.195 c 0,1.461 0.179,2.653 0.539,3.571 0.297,0.777 0.738,1.164 1.328,1.164 0.277,0 0.57,-0.125 0.875,-0.379 0.301,-0.25 0.527,-0.672 0.687,-1.27 0.235,-0.89 0.356,-2.156 0.36,-3.789 -0.004,-1.207 -0.129,-2.215 -0.375,-3.023 -0.192,-0.598 -0.434,-1.02 -0.727,-1.274 -0.215,-0.168 -0.473,-0.254 -0.773,-0.257 -0.356,0.003 -0.672,0.16 -0.946,0.476 -0.379,0.434 -0.632,1.113 -0.765,2.039 -0.137,0.93 -0.203,1.844 -0.203,2.742 z"
         style="fill:#000000;fill-opacity:1;fill-rule:nonzero;stroke:none"
         id="path126" />
      <path
         d="m 64.824,116.594 2.578,-1.258 h 0.258 v 8.945 c 0,0.598 0.024,0.969 0.074,1.11 0.047,0.148 0.149,0.257 0.309,0.336 0.152,0.078 0.473,0.125 0.953,0.132 v 0.289 h -3.984 v -0.289 c 0.5,-0.007 0.82,-0.05 0.968,-0.129 0.141,-0.07 0.243,-0.171 0.305,-0.304 0.055,-0.125 0.086,-0.508 0.086,-1.145 v -5.718 c 0,-0.77 -0.027,-1.266 -0.078,-1.485 -0.039,-0.164 -0.105,-0.285 -0.199,-0.367 -0.098,-0.074 -0.215,-0.113 -0.348,-0.117 -0.195,0.004 -0.461,0.086 -0.805,0.242 z"
         style="fill:#000000;fill-opacity:1;fill-rule:nonzero;stroke:none"
         id="path128" />
      <path
         d="m 78.285,124.109 -0.742,2.039 h -6.25 v -0.289 c 1.836,-1.671 3.129,-3.043 3.883,-4.109 0.746,-1.059 1.121,-2.031 1.125,-2.914 -0.004,-0.672 -0.207,-1.223 -0.617,-1.656 -0.414,-0.43 -0.907,-0.645 -1.477,-0.649 -0.523,0.004 -0.992,0.157 -1.402,0.457 -0.418,0.309 -0.723,0.754 -0.918,1.34 h -0.289 c 0.129,-0.961 0.465,-1.699 1.004,-2.219 0.539,-0.511 1.211,-0.769 2.019,-0.773 0.856,0.004 1.574,0.277 2.152,0.828 0.575,0.555 0.86,1.207 0.864,1.953 -0.004,0.539 -0.129,1.074 -0.375,1.61 -0.391,0.843 -1.016,1.738 -1.875,2.679 -1.301,1.418 -2.11,2.274 -2.43,2.563 h 2.766 c 0.558,0.004 0.953,-0.02 1.183,-0.063 0.223,-0.039 0.426,-0.121 0.614,-0.254 0.179,-0.125 0.339,-0.308 0.476,-0.543 z"
         style="fill:#000000;fill-opacity:1;fill-rule:nonzero;stroke:none"
         id="path130" />
      <g
         id="g132">
        <path
           d="m 87,86 h 7"
           style="fill:none;stroke:#000000;stroke-width:1;stroke-linecap:butt;stroke-linejoin:miter;stroke-miterlimit:10;stroke-dasharray:none;stroke-opacity:1"
           id="path134" />
      </g>
      <g
         id="g136">
        <path
           d="m 615,86 h -8"
           style="fill:none;stroke:#000000;stroke-width:1;stroke-linecap:butt;stroke-linejoin:miter;stroke-miterlimit:10;stroke-dasharray:none;stroke-opacity:1"
           id="path138" />
      </g>
      <path
         d="m 43.527,87.164 c -0.004,-1.203 0.18,-2.246 0.547,-3.121 0.364,-0.871 0.848,-1.52 1.453,-1.949 0.469,-0.336 0.953,-0.504 1.453,-0.508 0.813,0.004 1.54,0.418 2.188,1.242 0.805,1.031 1.211,2.422 1.211,4.172 0,1.234 -0.18,2.277 -0.531,3.133 -0.36,0.863 -0.809,1.488 -1.356,1.871 -0.551,0.391 -1.082,0.582 -1.59,0.582 -1.011,0 -1.851,-0.594 -2.523,-1.789 -0.57,-1 -0.856,-2.211 -0.852,-3.633 z m 1.532,0.195 c 0,1.461 0.179,2.653 0.539,3.571 0.297,0.777 0.738,1.164 1.328,1.164 0.277,0 0.57,-0.125 0.875,-0.379 0.301,-0.25 0.527,-0.672 0.687,-1.27 0.235,-0.89 0.356,-2.156 0.36,-3.789 -0.004,-1.207 -0.129,-2.215 -0.375,-3.023 -0.192,-0.598 -0.434,-1.02 -0.727,-1.274 -0.215,-0.168 -0.473,-0.254 -0.773,-0.257 -0.356,0.003 -0.672,0.16 -0.946,0.476 -0.379,0.434 -0.632,1.113 -0.765,2.039 -0.137,0.93 -0.203,1.844 -0.203,2.742 z"
         style="fill:#000000;fill-opacity:1;fill-rule:nonzero;stroke:none"
         id="path140" />
      <path
         d="m 52.949,90.883 c 0.242,0.004 0.449,0.09 0.617,0.254 0.164,0.172 0.247,0.375 0.25,0.613 -0.003,0.242 -0.086,0.445 -0.253,0.613 -0.172,0.168 -0.379,0.25 -0.614,0.254 -0.242,-0.004 -0.445,-0.086 -0.613,-0.254 -0.172,-0.168 -0.258,-0.371 -0.254,-0.613 -0.004,-0.242 0.082,-0.449 0.254,-0.617 0.168,-0.164 0.371,-0.246 0.613,-0.25 z"
         style="fill:#000000;fill-opacity:1;fill-rule:nonzero;stroke:none"
         id="path142" />
      <path
         d="m 55.527,87.164 c -0.004,-1.203 0.18,-2.246 0.547,-3.121 0.364,-0.871 0.848,-1.52 1.453,-1.949 0.469,-0.336 0.953,-0.504 1.453,-0.508 0.813,0.004 1.54,0.418 2.188,1.242 0.805,1.031 1.211,2.422 1.211,4.172 0,1.234 -0.18,2.277 -0.531,3.133 -0.36,0.863 -0.809,1.488 -1.356,1.871 -0.551,0.391 -1.082,0.582 -1.59,0.582 -1.011,0 -1.851,-0.594 -2.523,-1.789 -0.57,-1 -0.856,-2.211 -0.852,-3.633 z m 1.532,0.195 c 0,1.461 0.179,2.653 0.539,3.571 0.297,0.777 0.738,1.164 1.328,1.164 0.277,0 0.57,-0.125 0.875,-0.379 0.301,-0.25 0.527,-0.672 0.687,-1.27 0.235,-0.89 0.356,-2.156 0.36,-3.789 -0.004,-1.207 -0.129,-2.215 -0.375,-3.023 -0.192,-0.598 -0.434,-1.02 -0.727,-1.274 -0.215,-0.168 -0.473,-0.254 -0.773,-0.257 -0.356,0.003 -0.672,0.16 -0.946,0.476 -0.379,0.434 -0.632,1.113 -0.765,2.039 -0.137,0.93 -0.203,1.844 -0.203,2.742 z"
         style="fill:#000000;fill-opacity:1;fill-rule:nonzero;stroke:none"
         id="path144" />
      <path
         d="m 64.824,82.844 2.578,-1.258 h 0.258 v 8.945 c 0,0.598 0.024,0.969 0.074,1.11 0.047,0.148 0.149,0.257 0.309,0.336 0.152,0.078 0.473,0.125 0.953,0.132 v 0.289 h -3.984 v -0.289 c 0.5,-0.007 0.82,-0.05 0.968,-0.129 0.141,-0.07 0.243,-0.171 0.305,-0.304 0.055,-0.125 0.086,-0.508 0.086,-1.145 v -5.718 c 0,-0.77 -0.027,-1.266 -0.078,-1.485 -0.039,-0.164 -0.105,-0.285 -0.199,-0.367 -0.098,-0.074 -0.215,-0.113 -0.348,-0.117 -0.195,0.004 -0.461,0.086 -0.805,0.242 z"
         style="fill:#000000;fill-opacity:1;fill-rule:nonzero;stroke:none"
         id="path146" />
      <path
         d="m 78.395,88.492 v 1.11 h -1.422 v 2.796 h -1.289 v -2.796 h -4.485 v -1 l 4.914,-7.016 h 0.86 v 6.906 z m -2.711,0 v -5.258 l -3.719,5.258 z"
         style="fill:#000000;fill-opacity:1;fill-rule:nonzero;stroke:none"
         id="path148" />
      <g
         id="g150">
        <path
           d="m 87,53 h 7"
           style="fill:none;stroke:#000000;stroke-width:1;stroke-linecap:butt;stroke-linejoin:miter;stroke-miterlimit:10;stroke-dasharray:none;stroke-opacity:1"
           id="path152" />
      </g>
      <g
         id="g154">
        <path
           d="m 615,53 h -8"
           style="fill:none;stroke:#000000;stroke-width:1;stroke-linecap:butt;stroke-linejoin:miter;stroke-miterlimit:10;stroke-dasharray:none;stroke-opacity:1"
           id="path156" />
      </g>
      <path
         d="m 43.527,53.465 c -0.004,-1.203 0.18,-2.246 0.547,-3.121 0.364,-0.871 0.848,-1.52 1.453,-1.949 0.469,-0.336 0.953,-0.504 1.453,-0.508 0.813,0.004 1.54,0.418 2.188,1.242 0.805,1.031 1.211,2.422 1.211,4.172 0,1.234 -0.18,2.277 -0.531,3.133 -0.36,0.863 -0.809,1.488 -1.356,1.871 -0.551,0.39 -1.082,0.582 -1.59,0.582 -1.011,0 -1.851,-0.594 -2.523,-1.789 -0.57,-1 -0.856,-2.211 -0.852,-3.633 z m 1.532,0.195 c 0,1.461 0.179,2.653 0.539,3.57 0.297,0.778 0.738,1.165 1.328,1.165 0.277,0 0.57,-0.125 0.875,-0.379 0.301,-0.25 0.527,-0.672 0.687,-1.27 0.235,-0.891 0.356,-2.156 0.36,-3.789 -0.004,-1.207 -0.129,-2.215 -0.375,-3.023 -0.192,-0.598 -0.434,-1.02 -0.727,-1.274 -0.215,-0.168 -0.473,-0.254 -0.773,-0.258 -0.356,0.004 -0.672,0.161 -0.946,0.477 -0.379,0.434 -0.632,1.113 -0.765,2.039 -0.137,0.93 -0.203,1.844 -0.203,2.742 z"
         style="fill:#000000;fill-opacity:1;fill-rule:nonzero;stroke:none"
         id="path158" />
      <path
         d="m 52.949,57.184 c 0.242,0.004 0.449,0.089 0.617,0.254 0.164,0.171 0.247,0.375 0.25,0.613 -0.003,0.242 -0.086,0.445 -0.253,0.613 -0.172,0.168 -0.379,0.25 -0.614,0.254 -0.242,-0.004 -0.445,-0.086 -0.613,-0.254 -0.172,-0.168 -0.258,-0.371 -0.254,-0.613 -0.004,-0.242 0.082,-0.449 0.254,-0.617 0.168,-0.164 0.371,-0.246 0.613,-0.25 z"
         style="fill:#000000;fill-opacity:1;fill-rule:nonzero;stroke:none"
         id="path160" />
      <path
         d="m 55.527,53.465 c -0.004,-1.203 0.18,-2.246 0.547,-3.121 0.364,-0.871 0.848,-1.52 1.453,-1.949 0.469,-0.336 0.953,-0.504 1.453,-0.508 0.813,0.004 1.54,0.418 2.188,1.242 0.805,1.031 1.211,2.422 1.211,4.172 0,1.234 -0.18,2.277 -0.531,3.133 -0.36,0.863 -0.809,1.488 -1.356,1.871 -0.551,0.39 -1.082,0.582 -1.59,0.582 -1.011,0 -1.851,-0.594 -2.523,-1.789 -0.57,-1 -0.856,-2.211 -0.852,-3.633 z m 1.532,0.195 c 0,1.461 0.179,2.653 0.539,3.57 0.297,0.778 0.738,1.165 1.328,1.165 0.277,0 0.57,-0.125 0.875,-0.379 0.301,-0.25 0.527,-0.672 0.687,-1.27 0.235,-0.891 0.356,-2.156 0.36,-3.789 -0.004,-1.207 -0.129,-2.215 -0.375,-3.023 -0.192,-0.598 -0.434,-1.02 -0.727,-1.274 -0.215,-0.168 -0.473,-0.254 -0.773,-0.258 -0.356,0.004 -0.672,0.161 -0.946,0.477 -0.379,0.434 -0.632,1.113 -0.765,2.039 -0.137,0.93 -0.203,1.844 -0.203,2.742 z"
         style="fill:#000000;fill-opacity:1;fill-rule:nonzero;stroke:none"
         id="path162" />
      <path
         d="m 64.824,49.145 2.578,-1.258 h 0.258 v 8.945 c 0,0.598 0.024,0.969 0.074,1.109 0.047,0.149 0.149,0.258 0.309,0.336 0.152,0.078 0.473,0.125 0.953,0.133 v 0.289 H 65.012 V 58.41 c 0.5,-0.008 0.82,-0.051 0.968,-0.129 0.141,-0.07 0.243,-0.172 0.305,-0.304 0.055,-0.125 0.086,-0.508 0.086,-1.145 v -5.719 c 0,-0.769 -0.027,-1.265 -0.078,-1.484 -0.039,-0.164 -0.105,-0.285 -0.199,-0.367 -0.098,-0.074 -0.215,-0.114 -0.348,-0.117 -0.195,0.003 -0.461,0.085 -0.805,0.242 z"
         style="fill:#000000;fill-opacity:1;fill-rule:nonzero;stroke:none"
         id="path164" />
      <path
         d="m 78.121,47.887 v 0.289 c -0.687,0.07 -1.25,0.207 -1.683,0.41 -0.438,0.207 -0.868,0.523 -1.29,0.941 -0.425,0.426 -0.777,0.895 -1.054,1.411 -0.281,0.519 -0.516,1.136 -0.699,1.847 0.746,-0.512 1.5,-0.769 2.257,-0.773 0.723,0.004 1.352,0.293 1.883,0.875 0.531,0.586 0.797,1.336 0.797,2.25 0,0.886 -0.269,1.695 -0.805,2.422 -0.648,0.886 -1.504,1.328 -2.562,1.328 -0.727,0 -1.34,-0.239 -1.844,-0.719 -0.992,-0.93 -1.488,-2.137 -1.484,-3.625 -0.004,-0.945 0.187,-1.848 0.57,-2.703 0.379,-0.852 0.922,-1.61 1.629,-2.274 0.703,-0.66 1.379,-1.105 2.027,-1.336 0.645,-0.226 1.246,-0.339 1.805,-0.343 z m -4.859,5.468 c -0.098,0.704 -0.145,1.274 -0.141,1.704 -0.004,0.504 0.09,1.046 0.277,1.629 0.184,0.589 0.457,1.054 0.825,1.394 0.261,0.25 0.586,0.371 0.968,0.367 0.454,0.004 0.856,-0.211 1.215,-0.64 0.352,-0.426 0.532,-1.036 0.535,-1.829 -0.003,-0.89 -0.179,-1.66 -0.531,-2.312 -0.355,-0.648 -0.859,-0.973 -1.508,-0.977 -0.199,0.004 -0.41,0.043 -0.636,0.125 -0.227,0.086 -0.563,0.266 -1.004,0.539 z"
         style="fill:#000000;fill-opacity:1;fill-rule:nonzero;stroke:none"
         id="path166" />
      <g
         id="g168">
        <path
           d="m 87,19 h 7"
           style="fill:none;stroke:#000000;stroke-width:1;stroke-linecap:butt;stroke-linejoin:miter;stroke-miterlimit:10;stroke-dasharray:none;stroke-opacity:1"
           id="path170" />
      </g>
      <g
         id="g172">
        <path
           d="m 615,19 h -8"
           style="fill:none;stroke:#000000;stroke-width:1;stroke-linecap:butt;stroke-linejoin:miter;stroke-miterlimit:10;stroke-dasharray:none;stroke-opacity:1"
           id="path174" />
      </g>
      <path
         d="m 43.527,19.766 c -0.004,-1.203 0.18,-2.246 0.547,-3.121 0.364,-0.872 0.848,-1.52 1.453,-1.95 0.469,-0.336 0.953,-0.504 1.453,-0.507 0.813,0.003 1.54,0.417 2.188,1.242 0.805,1.031 1.211,2.422 1.211,4.172 0,1.234 -0.18,2.277 -0.531,3.132 -0.36,0.864 -0.809,1.489 -1.356,1.871 -0.551,0.391 -1.082,0.583 -1.59,0.583 -1.011,0 -1.851,-0.594 -2.523,-1.79 -0.57,-1 -0.856,-2.21 -0.852,-3.632 z m 1.532,0.195 c 0,1.461 0.179,2.652 0.539,3.57 0.297,0.778 0.738,1.164 1.328,1.164 0.277,0 0.57,-0.125 0.875,-0.379 0.301,-0.25 0.527,-0.671 0.687,-1.269 0.235,-0.891 0.356,-2.156 0.36,-3.789 -0.004,-1.207 -0.129,-2.215 -0.375,-3.024 -0.192,-0.597 -0.434,-1.019 -0.727,-1.273 -0.215,-0.168 -0.473,-0.254 -0.773,-0.258 -0.356,0.004 -0.672,0.16 -0.946,0.477 -0.379,0.433 -0.632,1.113 -0.765,2.039 -0.137,0.929 -0.203,1.844 -0.203,2.742 z"
         style="fill:#000000;fill-opacity:1;fill-rule:nonzero;stroke:none"
         id="path176" />
      <path
         d="m 52.949,23.484 c 0.242,0.004 0.449,0.09 0.617,0.254 0.164,0.172 0.247,0.375 0.25,0.614 -0.003,0.242 -0.086,0.445 -0.253,0.613 -0.172,0.168 -0.379,0.25 -0.614,0.254 -0.242,-0.004 -0.445,-0.086 -0.613,-0.254 -0.172,-0.168 -0.258,-0.371 -0.254,-0.613 -0.004,-0.243 0.082,-0.45 0.254,-0.618 0.168,-0.164 0.371,-0.246 0.613,-0.25 z"
         style="fill:#000000;fill-opacity:1;fill-rule:nonzero;stroke:none"
         id="path178" />
      <path
         d="m 55.527,19.766 c -0.004,-1.203 0.18,-2.246 0.547,-3.121 0.364,-0.872 0.848,-1.52 1.453,-1.95 0.469,-0.336 0.953,-0.504 1.453,-0.507 0.813,0.003 1.54,0.417 2.188,1.242 0.805,1.031 1.211,2.422 1.211,4.172 0,1.234 -0.18,2.277 -0.531,3.132 -0.36,0.864 -0.809,1.489 -1.356,1.871 -0.551,0.391 -1.082,0.583 -1.59,0.583 -1.011,0 -1.851,-0.594 -2.523,-1.79 -0.57,-1 -0.856,-2.21 -0.852,-3.632 z m 1.532,0.195 c 0,1.461 0.179,2.652 0.539,3.57 0.297,0.778 0.738,1.164 1.328,1.164 0.277,0 0.57,-0.125 0.875,-0.379 0.301,-0.25 0.527,-0.671 0.687,-1.269 0.235,-0.891 0.356,-2.156 0.36,-3.789 -0.004,-1.207 -0.129,-2.215 -0.375,-3.024 -0.192,-0.597 -0.434,-1.019 -0.727,-1.273 -0.215,-0.168 -0.473,-0.254 -0.773,-0.258 -0.356,0.004 -0.672,0.16 -0.946,0.477 -0.379,0.433 -0.632,1.113 -0.765,2.039 -0.137,0.929 -0.203,1.844 -0.203,2.742 z"
         style="fill:#000000;fill-opacity:1;fill-rule:nonzero;stroke:none"
         id="path180" />
      <path
         d="m 64.824,15.445 2.578,-1.257 h 0.258 v 8.945 c 0,0.597 0.024,0.969 0.074,1.109 0.047,0.149 0.149,0.258 0.309,0.336 0.152,0.078 0.473,0.125 0.953,0.133 V 25 h -3.984 v -0.289 c 0.5,-0.008 0.82,-0.051 0.968,-0.129 0.141,-0.07 0.243,-0.172 0.305,-0.305 0.055,-0.125 0.086,-0.507 0.086,-1.144 v -5.719 c 0,-0.769 -0.027,-1.266 -0.078,-1.484 -0.039,-0.164 -0.105,-0.285 -0.199,-0.367 -0.098,-0.075 -0.215,-0.114 -0.348,-0.118 -0.195,0.004 -0.461,0.086 -0.805,0.243 z"
         style="fill:#000000;fill-opacity:1;fill-rule:nonzero;stroke:none"
         id="path182" />
      <path
         d="M 74.02,19.664 C 73.18,18.98 72.637,18.43 72.398,18.008 72.152,17.594 72.031,17.16 72.035,16.711 c -0.004,-0.684 0.262,-1.277 0.797,-1.777 0.527,-0.496 1.234,-0.743 2.117,-0.746 0.852,0.003 1.539,0.234 2.063,0.695 0.519,0.465 0.781,0.992 0.781,1.586 0,0.398 -0.141,0.804 -0.422,1.211 -0.281,0.414 -0.867,0.898 -1.758,1.453 0.914,0.711 1.52,1.265 1.821,1.672 0.394,0.531 0.593,1.093 0.593,1.679 0,0.75 -0.285,1.387 -0.851,1.911 -0.571,0.531 -1.317,0.793 -2.235,0.793 -1.007,0 -1.789,-0.313 -2.351,-0.946 -0.449,-0.5 -0.676,-1.054 -0.672,-1.656 -0.004,-0.469 0.156,-0.934 0.473,-1.395 0.312,-0.461 0.855,-0.968 1.629,-1.527 z m 1.226,-0.836 c 0.621,-0.558 1.02,-1.004 1.188,-1.332 0.164,-0.324 0.246,-0.691 0.25,-1.105 -0.004,-0.543 -0.157,-0.973 -0.461,-1.286 -0.309,-0.308 -0.731,-0.464 -1.258,-0.464 -0.535,0 -0.965,0.156 -1.297,0.461 -0.336,0.312 -0.504,0.671 -0.5,1.078 -0.004,0.273 0.066,0.543 0.207,0.812 0.137,0.274 0.332,0.531 0.59,0.774 z m -0.859,1.133 c -0.434,0.367 -0.754,0.766 -0.961,1.191 -0.211,0.434 -0.317,0.899 -0.313,1.395 -0.004,0.676 0.18,1.215 0.551,1.613 0.363,0.406 0.832,0.606 1.402,0.606 0.559,0 1.008,-0.157 1.352,-0.477 0.336,-0.312 0.508,-0.699 0.508,-1.156 0,-0.371 -0.102,-0.707 -0.297,-1.008 -0.375,-0.551 -1.121,-1.273 -2.242,-2.164 z"
         style="fill:#000000;fill-opacity:1;fill-rule:nonzero;stroke:none"
         id="path184" />
      <g
         id="g186">
        <path
           d="m 87,322 v -7"
           style="fill:none;stroke:#000000;stroke-width:1;stroke-linecap:butt;stroke-linejoin:miter;stroke-miterlimit:10;stroke-dasharray:none;stroke-opacity:1"
           id="path188" />
      </g>
      <g
         id="g190">
        <path
           d="m 87,19 v 8"
           style="fill:none;stroke:#000000;stroke-width:1;stroke-linecap:butt;stroke-linejoin:miter;stroke-miterlimit:10;stroke-dasharray:none;stroke-opacity:1"
           id="path192" />
      </g>
      <path
         d="m 76.598,343.172 h 4.039 v 1.18 h -4.039 z"
         style="fill:#000000;fill-opacity:1;fill-rule:nonzero;stroke:none"
         id="path194" />
      <path
         d="m 89.395,343.445 v 1.11 h -1.422 v 2.797 h -1.289 v -2.797 h -4.485 v -1 l 4.914,-7.016 h 0.86 v 6.906 z m -2.711,0 v -5.257 l -3.719,5.257 z"
         style="fill:#000000;fill-opacity:1;fill-rule:nonzero;stroke:none"
         id="path196" />
      <path
         d="m 90.527,342.117 c -0.004,-1.203 0.18,-2.246 0.547,-3.121 0.364,-0.871 0.848,-1.519 1.453,-1.949 0.469,-0.336 0.953,-0.504 1.453,-0.508 0.813,0.004 1.54,0.418 2.188,1.242 0.805,1.032 1.211,2.422 1.211,4.172 0,1.235 -0.18,2.277 -0.531,3.133 -0.36,0.863 -0.809,1.488 -1.356,1.871 -0.551,0.391 -1.082,0.582 -1.59,0.582 -1.011,0 -1.851,-0.594 -2.523,-1.789 -0.57,-1 -0.856,-2.211 -0.852,-3.633 z m 1.532,0.196 c 0,1.46 0.179,2.652 0.539,3.57 0.297,0.777 0.738,1.164 1.328,1.164 0.277,0 0.57,-0.125 0.875,-0.379 0.301,-0.25 0.527,-0.672 0.687,-1.27 0.235,-0.89 0.356,-2.156 0.36,-3.789 -0.004,-1.207 -0.129,-2.214 -0.375,-3.023 -0.192,-0.598 -0.434,-1.02 -0.727,-1.273 -0.215,-0.168 -0.473,-0.254 -0.773,-0.258 -0.356,0.004 -0.672,0.16 -0.946,0.476 -0.379,0.434 -0.632,1.114 -0.765,2.039 -0.137,0.93 -0.203,1.844 -0.203,2.743 z"
         style="fill:#000000;fill-opacity:1;fill-rule:nonzero;stroke:none"
         id="path198" />
      <g
         id="g200">
        <path
           d="m 153,322 v -7"
           style="fill:none;stroke:#000000;stroke-width:1;stroke-linecap:butt;stroke-linejoin:miter;stroke-miterlimit:10;stroke-dasharray:none;stroke-opacity:1"
           id="path202" />
      </g>
      <g
         id="g204">
        <path
           d="m 153,19 v 8"
           style="fill:none;stroke:#000000;stroke-width:1;stroke-linecap:butt;stroke-linejoin:miter;stroke-miterlimit:10;stroke-dasharray:none;stroke-opacity:1"
           id="path206" />
      </g>
      <path
         d="m 142.598,343.172 h 4.039 v 1.18 h -4.039 z"
         style="fill:#000000;fill-opacity:1;fill-rule:nonzero;stroke:none"
         id="path208" />
      <path
         d="m 148.762,338.773 c 0.301,-0.71 0.683,-1.261 1.144,-1.652 0.461,-0.387 1.035,-0.578 1.723,-0.582 0.848,0.004 1.496,0.277 1.953,0.828 0.34,0.414 0.512,0.856 0.516,1.321 -0.004,0.773 -0.489,1.57 -1.453,2.39 0.648,0.258 1.14,0.621 1.476,1.094 0.328,0.476 0.496,1.035 0.5,1.672 -0.004,0.918 -0.297,1.711 -0.875,2.383 -0.766,0.875 -1.867,1.312 -3.305,1.312 -0.718,0 -1.203,-0.086 -1.457,-0.266 -0.261,-0.171 -0.39,-0.363 -0.386,-0.57 -0.004,-0.148 0.058,-0.281 0.183,-0.398 0.121,-0.114 0.266,-0.172 0.442,-0.172 0.125,0 0.257,0.023 0.398,0.062 0.086,0.032 0.289,0.125 0.602,0.285 0.312,0.168 0.527,0.266 0.648,0.293 0.192,0.059 0.399,0.086 0.617,0.086 0.532,0 0.992,-0.203 1.387,-0.617 0.391,-0.406 0.586,-0.894 0.59,-1.461 -0.004,-0.41 -0.094,-0.812 -0.274,-1.203 -0.136,-0.289 -0.285,-0.508 -0.445,-0.664 -0.226,-0.203 -0.535,-0.394 -0.922,-0.566 -0.394,-0.168 -0.793,-0.25 -1.195,-0.254 h -0.25 v -0.235 c 0.41,-0.046 0.824,-0.195 1.238,-0.445 0.414,-0.242 0.715,-0.539 0.903,-0.883 0.187,-0.343 0.281,-0.718 0.281,-1.133 0,-0.531 -0.168,-0.964 -0.504,-1.3 -0.336,-0.328 -0.754,-0.496 -1.254,-0.496 -0.809,0 -1.484,0.433 -2.023,1.296 z"
         style="fill:#000000;fill-opacity:1;fill-rule:nonzero;stroke:none"
         id="path210" />
      <path
         d="m 156.527,342.117 c -0.004,-1.203 0.18,-2.246 0.547,-3.121 0.364,-0.871 0.848,-1.519 1.453,-1.949 0.469,-0.336 0.953,-0.504 1.453,-0.508 0.813,0.004 1.54,0.418 2.188,1.242 0.805,1.032 1.211,2.422 1.211,4.172 0,1.235 -0.18,2.277 -0.531,3.133 -0.36,0.863 -0.809,1.488 -1.356,1.871 -0.551,0.391 -1.082,0.582 -1.59,0.582 -1.011,0 -1.851,-0.594 -2.523,-1.789 -0.57,-1 -0.856,-2.211 -0.852,-3.633 z m 1.532,0.196 c 0,1.46 0.179,2.652 0.539,3.57 0.297,0.777 0.738,1.164 1.328,1.164 0.277,0 0.57,-0.125 0.875,-0.379 0.301,-0.25 0.527,-0.672 0.687,-1.27 0.235,-0.89 0.356,-2.156 0.36,-3.789 -0.004,-1.207 -0.129,-2.214 -0.375,-3.023 -0.192,-0.598 -0.434,-1.02 -0.727,-1.273 -0.215,-0.168 -0.473,-0.254 -0.773,-0.258 -0.356,0.004 -0.672,0.16 -0.946,0.476 -0.379,0.434 -0.632,1.114 -0.765,2.039 -0.137,0.93 -0.203,1.844 -0.203,2.743 z"
         style="fill:#000000;fill-opacity:1;fill-rule:nonzero;stroke:none"
         id="path212" />
      <g
         id="g214">
        <path
           d="m 219,322 v -7"
           style="fill:none;stroke:#000000;stroke-width:1;stroke-linecap:butt;stroke-linejoin:miter;stroke-miterlimit:10;stroke-dasharray:none;stroke-opacity:1"
           id="path216" />
      </g>
      <g
         id="g218">
        <path
           d="m 219,19 v 8"
           style="fill:none;stroke:#000000;stroke-width:1;stroke-linecap:butt;stroke-linejoin:miter;stroke-miterlimit:10;stroke-dasharray:none;stroke-opacity:1"
           id="path220" />
      </g>
      <path
         d="m 208.598,343.172 h 4.039 v 1.18 h -4.039 z"
         style="fill:#000000;fill-opacity:1;fill-rule:nonzero;stroke:none"
         id="path222" />
      <path
         d="m 221.285,345.313 -0.742,2.039 h -6.25 v -0.289 c 1.836,-1.672 3.129,-3.043 3.883,-4.11 0.746,-1.058 1.121,-2.031 1.125,-2.914 -0.004,-0.672 -0.207,-1.223 -0.617,-1.656 -0.414,-0.43 -0.907,-0.645 -1.477,-0.649 -0.523,0.004 -0.992,0.157 -1.402,0.457 -0.418,0.309 -0.723,0.754 -0.918,1.34 h -0.289 c 0.129,-0.961 0.465,-1.699 1.004,-2.218 0.539,-0.512 1.211,-0.77 2.019,-0.774 0.856,0.004 1.574,0.277 2.152,0.828 0.575,0.555 0.86,1.207 0.864,1.953 -0.004,0.539 -0.129,1.075 -0.375,1.61 -0.391,0.843 -1.016,1.738 -1.875,2.679 -1.301,1.418 -2.11,2.274 -2.43,2.563 h 2.766 c 0.558,0.004 0.953,-0.02 1.183,-0.063 0.223,-0.039 0.426,-0.121 0.614,-0.254 0.179,-0.125 0.339,-0.308 0.476,-0.542 z"
         style="fill:#000000;fill-opacity:1;fill-rule:nonzero;stroke:none"
         id="path224" />
      <path
         d="m 222.527,342.117 c -0.004,-1.203 0.18,-2.246 0.547,-3.121 0.364,-0.871 0.848,-1.519 1.453,-1.949 0.469,-0.336 0.953,-0.504 1.453,-0.508 0.813,0.004 1.54,0.418 2.188,1.242 0.805,1.032 1.211,2.422 1.211,4.172 0,1.235 -0.18,2.277 -0.531,3.133 -0.36,0.863 -0.809,1.488 -1.356,1.871 -0.551,0.391 -1.082,0.582 -1.59,0.582 -1.011,0 -1.851,-0.594 -2.523,-1.789 -0.57,-1 -0.856,-2.211 -0.852,-3.633 z m 1.532,0.196 c 0,1.46 0.179,2.652 0.539,3.57 0.297,0.777 0.738,1.164 1.328,1.164 0.277,0 0.57,-0.125 0.875,-0.379 0.301,-0.25 0.527,-0.672 0.687,-1.27 0.235,-0.89 0.356,-2.156 0.36,-3.789 -0.004,-1.207 -0.129,-2.214 -0.375,-3.023 -0.192,-0.598 -0.434,-1.02 -0.727,-1.273 -0.215,-0.168 -0.473,-0.254 -0.773,-0.258 -0.356,0.004 -0.672,0.16 -0.946,0.476 -0.379,0.434 -0.632,1.114 -0.765,2.039 -0.137,0.93 -0.203,1.844 -0.203,2.743 z"
         style="fill:#000000;fill-opacity:1;fill-rule:nonzero;stroke:none"
         id="path226" />
      <g
         id="g228">
        <path
           d="m 285,322 v -7"
           style="fill:none;stroke:#000000;stroke-width:1;stroke-linecap:butt;stroke-linejoin:miter;stroke-miterlimit:10;stroke-dasharray:none;stroke-opacity:1"
           id="path230" />
      </g>
      <g
         id="g232">
        <path
           d="m 285,19 v 8"
           style="fill:none;stroke:#000000;stroke-width:1;stroke-linecap:butt;stroke-linejoin:miter;stroke-miterlimit:10;stroke-dasharray:none;stroke-opacity:1"
           id="path234" />
      </g>
      <path
         d="m 274.598,343.172 h 4.039 v 1.18 h -4.039 z"
         style="fill:#000000;fill-opacity:1;fill-rule:nonzero;stroke:none"
         id="path236" />
      <path
         d="m 281.824,337.797 2.578,-1.258 h 0.258 v 8.945 c 0,0.598 0.024,0.969 0.074,1.11 0.047,0.148 0.149,0.258 0.309,0.336 0.152,0.078 0.473,0.125 0.953,0.133 v 0.289 h -3.984 v -0.289 c 0.5,-0.008 0.82,-0.051 0.968,-0.129 0.141,-0.071 0.243,-0.172 0.305,-0.305 0.055,-0.125 0.086,-0.508 0.086,-1.145 v -5.718 c 0,-0.77 -0.027,-1.266 -0.078,-1.485 -0.039,-0.164 -0.105,-0.285 -0.199,-0.367 -0.098,-0.074 -0.215,-0.113 -0.348,-0.117 -0.195,0.004 -0.461,0.086 -0.805,0.242 z"
         style="fill:#000000;fill-opacity:1;fill-rule:nonzero;stroke:none"
         id="path238" />
      <path
         d="m 288.527,342.117 c -0.004,-1.203 0.18,-2.246 0.547,-3.121 0.364,-0.871 0.848,-1.519 1.453,-1.949 0.469,-0.336 0.953,-0.504 1.453,-0.508 0.813,0.004 1.54,0.418 2.188,1.242 0.805,1.032 1.211,2.422 1.211,4.172 0,1.235 -0.18,2.277 -0.531,3.133 -0.36,0.863 -0.809,1.488 -1.356,1.871 -0.551,0.391 -1.082,0.582 -1.59,0.582 -1.011,0 -1.851,-0.594 -2.523,-1.789 -0.57,-1 -0.856,-2.211 -0.852,-3.633 z m 1.532,0.196 c 0,1.46 0.179,2.652 0.539,3.57 0.297,0.777 0.738,1.164 1.328,1.164 0.277,0 0.57,-0.125 0.875,-0.379 0.301,-0.25 0.527,-0.672 0.687,-1.27 0.235,-0.89 0.356,-2.156 0.36,-3.789 -0.004,-1.207 -0.129,-2.214 -0.375,-3.023 -0.192,-0.598 -0.434,-1.02 -0.727,-1.273 -0.215,-0.168 -0.473,-0.254 -0.773,-0.258 -0.356,0.004 -0.672,0.16 -0.946,0.476 -0.379,0.434 -0.632,1.114 -0.765,2.039 -0.137,0.93 -0.203,1.844 -0.203,2.743 z"
         style="fill:#000000;fill-opacity:1;fill-rule:nonzero;stroke:none"
         id="path240" />
      <g
         id="g242">
        <path
           d="m 351,322 v -7"
           style="fill:none;stroke:#000000;stroke-width:1;stroke-linecap:butt;stroke-linejoin:miter;stroke-miterlimit:10;stroke-dasharray:none;stroke-opacity:1"
           id="path244" />
      </g>
      <g
         id="g246">
        <path
           d="m 351,19 v 8"
           style="fill:none;stroke:#000000;stroke-width:1;stroke-linecap:butt;stroke-linejoin:miter;stroke-miterlimit:10;stroke-dasharray:none;stroke-opacity:1"
           id="path248" />
      </g>
      <path
         d="m 349.527,342.117 c -0.004,-1.203 0.18,-2.246 0.547,-3.121 0.364,-0.871 0.848,-1.519 1.453,-1.949 0.469,-0.336 0.953,-0.504 1.453,-0.508 0.813,0.004 1.54,0.418 2.188,1.242 0.805,1.032 1.211,2.422 1.211,4.172 0,1.235 -0.18,2.277 -0.531,3.133 -0.36,0.863 -0.809,1.488 -1.356,1.871 -0.551,0.391 -1.082,0.582 -1.59,0.582 -1.011,0 -1.851,-0.594 -2.523,-1.789 -0.57,-1 -0.856,-2.211 -0.852,-3.633 z m 1.532,0.196 c 0,1.46 0.179,2.652 0.539,3.57 0.297,0.777 0.738,1.164 1.328,1.164 0.277,0 0.57,-0.125 0.875,-0.379 0.301,-0.25 0.527,-0.672 0.687,-1.27 0.235,-0.89 0.356,-2.156 0.36,-3.789 -0.004,-1.207 -0.129,-2.214 -0.375,-3.023 -0.192,-0.598 -0.434,-1.02 -0.727,-1.273 -0.215,-0.168 -0.473,-0.254 -0.773,-0.258 -0.356,0.004 -0.672,0.16 -0.946,0.476 -0.379,0.434 -0.632,1.114 -0.765,2.039 -0.137,0.93 -0.203,1.844 -0.203,2.743 z"
         style="fill:#000000;fill-opacity:1;fill-rule:nonzero;stroke:none"
         id="path250" />
      <g
         id="g252">
        <path
           d="m 417,322 v -7"
           style="fill:none;stroke:#000000;stroke-width:1;stroke-linecap:butt;stroke-linejoin:miter;stroke-miterlimit:10;stroke-dasharray:none;stroke-opacity:1"
           id="path254" />
      </g>
      <g
         id="g256">
        <path
           d="m 417,19 v 8"
           style="fill:none;stroke:#000000;stroke-width:1;stroke-linecap:butt;stroke-linejoin:miter;stroke-miterlimit:10;stroke-dasharray:none;stroke-opacity:1"
           id="path258" />
      </g>
      <path
         d="m 412.824,337.797 2.578,-1.258 h 0.258 v 8.945 c 0,0.598 0.024,0.969 0.074,1.11 0.047,0.148 0.149,0.258 0.309,0.336 0.152,0.078 0.473,0.125 0.953,0.133 v 0.289 h -3.984 v -0.289 c 0.5,-0.008 0.82,-0.051 0.968,-0.129 0.141,-0.071 0.243,-0.172 0.305,-0.305 0.055,-0.125 0.086,-0.508 0.086,-1.145 v -5.718 c 0,-0.77 -0.027,-1.266 -0.078,-1.485 -0.039,-0.164 -0.105,-0.285 -0.199,-0.367 -0.098,-0.074 -0.215,-0.113 -0.348,-0.117 -0.195,0.004 -0.461,0.086 -0.805,0.242 z"
         style="fill:#000000;fill-opacity:1;fill-rule:nonzero;stroke:none"
         id="path260" />
      <path
         d="m 419.527,342.117 c -0.004,-1.203 0.18,-2.246 0.547,-3.121 0.364,-0.871 0.848,-1.519 1.453,-1.949 0.469,-0.336 0.953,-0.504 1.453,-0.508 0.813,0.004 1.54,0.418 2.188,1.242 0.805,1.032 1.211,2.422 1.211,4.172 0,1.235 -0.18,2.277 -0.531,3.133 -0.36,0.863 -0.809,1.488 -1.356,1.871 -0.551,0.391 -1.082,0.582 -1.59,0.582 -1.011,0 -1.851,-0.594 -2.523,-1.789 -0.57,-1 -0.856,-2.211 -0.852,-3.633 z m 1.532,0.196 c 0,1.46 0.179,2.652 0.539,3.57 0.297,0.777 0.738,1.164 1.328,1.164 0.277,0 0.57,-0.125 0.875,-0.379 0.301,-0.25 0.527,-0.672 0.687,-1.27 0.235,-0.89 0.356,-2.156 0.36,-3.789 -0.004,-1.207 -0.129,-2.214 -0.375,-3.023 -0.192,-0.598 -0.434,-1.02 -0.727,-1.273 -0.215,-0.168 -0.473,-0.254 -0.773,-0.258 -0.356,0.004 -0.672,0.16 -0.946,0.476 -0.379,0.434 -0.632,1.114 -0.765,2.039 -0.137,0.93 -0.203,1.844 -0.203,2.743 z"
         style="fill:#000000;fill-opacity:1;fill-rule:nonzero;stroke:none"
         id="path262" />
      <g
         id="g264">
        <path
           d="m 483,322 v -7"
           style="fill:none;stroke:#000000;stroke-width:1;stroke-linecap:butt;stroke-linejoin:miter;stroke-miterlimit:10;stroke-dasharray:none;stroke-opacity:1"
           id="path266" />
      </g>
      <g
         id="g268">
        <path
           d="m 483,19 v 8"
           style="fill:none;stroke:#000000;stroke-width:1;stroke-linecap:butt;stroke-linejoin:miter;stroke-miterlimit:10;stroke-dasharray:none;stroke-opacity:1"
           id="path270" />
      </g>
      <path
         d="m 484.285,345.313 -0.742,2.039 h -6.25 v -0.289 c 1.836,-1.672 3.129,-3.043 3.883,-4.11 0.746,-1.058 1.121,-2.031 1.125,-2.914 -0.004,-0.672 -0.207,-1.223 -0.617,-1.656 -0.414,-0.43 -0.907,-0.645 -1.477,-0.649 -0.523,0.004 -0.992,0.157 -1.402,0.457 -0.418,0.309 -0.723,0.754 -0.918,1.34 h -0.289 c 0.129,-0.961 0.465,-1.699 1.004,-2.218 0.539,-0.512 1.211,-0.77 2.019,-0.774 0.856,0.004 1.574,0.277 2.152,0.828 0.575,0.555 0.86,1.207 0.864,1.953 -0.004,0.539 -0.129,1.075 -0.375,1.61 -0.391,0.843 -1.016,1.738 -1.875,2.679 -1.301,1.418 -2.11,2.274 -2.43,2.563 h 2.766 c 0.558,0.004 0.953,-0.02 1.183,-0.063 0.223,-0.039 0.426,-0.121 0.614,-0.254 0.179,-0.125 0.339,-0.308 0.476,-0.542 z"
         style="fill:#000000;fill-opacity:1;fill-rule:nonzero;stroke:none"
         id="path272" />
      <path
         d="m 485.527,342.117 c -0.004,-1.203 0.18,-2.246 0.547,-3.121 0.364,-0.871 0.848,-1.519 1.453,-1.949 0.469,-0.336 0.953,-0.504 1.453,-0.508 0.813,0.004 1.54,0.418 2.188,1.242 0.805,1.032 1.211,2.422 1.211,4.172 0,1.235 -0.18,2.277 -0.531,3.133 -0.36,0.863 -0.809,1.488 -1.356,1.871 -0.551,0.391 -1.082,0.582 -1.59,0.582 -1.011,0 -1.851,-0.594 -2.523,-1.789 -0.57,-1 -0.856,-2.211 -0.852,-3.633 z m 1.532,0.196 c 0,1.46 0.179,2.652 0.539,3.57 0.297,0.777 0.738,1.164 1.328,1.164 0.277,0 0.57,-0.125 0.875,-0.379 0.301,-0.25 0.527,-0.672 0.687,-1.27 0.235,-0.89 0.356,-2.156 0.36,-3.789 -0.004,-1.207 -0.129,-2.214 -0.375,-3.023 -0.192,-0.598 -0.434,-1.02 -0.727,-1.273 -0.215,-0.168 -0.473,-0.254 -0.773,-0.258 -0.356,0.004 -0.672,0.16 -0.946,0.476 -0.379,0.434 -0.632,1.114 -0.765,2.039 -0.137,0.93 -0.203,1.844 -0.203,2.743 z"
         style="fill:#000000;fill-opacity:1;fill-rule:nonzero;stroke:none"
         id="path274" />
      <g
         id="g276">
        <path
           d="m 549,322 v -7"
           style="fill:none;stroke:#000000;stroke-width:1;stroke-linecap:butt;stroke-linejoin:miter;stroke-miterlimit:10;stroke-dasharray:none;stroke-opacity:1"
           id="path278" />
      </g>
      <g
         id="g280">
        <path
           d="m 549,19 v 8"
           style="fill:none;stroke:#000000;stroke-width:1;stroke-linecap:butt;stroke-linejoin:miter;stroke-miterlimit:10;stroke-dasharray:none;stroke-opacity:1"
           id="path282" />
      </g>
      <path
         d="m 543.762,338.773 c 0.301,-0.71 0.683,-1.261 1.144,-1.652 0.461,-0.387 1.035,-0.578 1.723,-0.582 0.848,0.004 1.496,0.277 1.953,0.828 0.34,0.414 0.512,0.856 0.516,1.321 -0.004,0.773 -0.489,1.57 -1.453,2.39 0.648,0.258 1.14,0.621 1.476,1.094 0.328,0.476 0.496,1.035 0.5,1.672 -0.004,0.918 -0.297,1.711 -0.875,2.383 -0.766,0.875 -1.867,1.312 -3.305,1.312 -0.718,0 -1.203,-0.086 -1.457,-0.266 -0.261,-0.171 -0.39,-0.363 -0.386,-0.57 -0.004,-0.148 0.058,-0.281 0.183,-0.398 0.121,-0.114 0.266,-0.172 0.442,-0.172 0.125,0 0.257,0.023 0.398,0.062 0.086,0.032 0.289,0.125 0.602,0.285 0.312,0.168 0.527,0.266 0.648,0.293 0.192,0.059 0.399,0.086 0.617,0.086 0.532,0 0.992,-0.203 1.387,-0.617 0.391,-0.406 0.586,-0.894 0.59,-1.461 -0.004,-0.41 -0.094,-0.812 -0.274,-1.203 -0.136,-0.289 -0.285,-0.508 -0.445,-0.664 -0.226,-0.203 -0.535,-0.394 -0.922,-0.566 -0.394,-0.168 -0.793,-0.25 -1.195,-0.254 h -0.25 v -0.235 c 0.41,-0.046 0.824,-0.195 1.238,-0.445 0.414,-0.242 0.715,-0.539 0.903,-0.883 0.187,-0.343 0.281,-0.718 0.281,-1.133 0,-0.531 -0.168,-0.964 -0.504,-1.3 -0.336,-0.328 -0.754,-0.496 -1.254,-0.496 -0.809,0 -1.484,0.433 -2.023,1.296 z"
         style="fill:#000000;fill-opacity:1;fill-rule:nonzero;stroke:none"
         id="path284" />
      <path
         d="m 551.527,342.117 c -0.004,-1.203 0.18,-2.246 0.547,-3.121 0.364,-0.871 0.848,-1.519 1.453,-1.949 0.469,-0.336 0.953,-0.504 1.453,-0.508 0.813,0.004 1.54,0.418 2.188,1.242 0.805,1.032 1.211,2.422 1.211,4.172 0,1.235 -0.18,2.277 -0.531,3.133 -0.36,0.863 -0.809,1.488 -1.356,1.871 -0.551,0.391 -1.082,0.582 -1.59,0.582 -1.011,0 -1.851,-0.594 -2.523,-1.789 -0.57,-1 -0.856,-2.211 -0.852,-3.633 z m 1.532,0.196 c 0,1.46 0.179,2.652 0.539,3.57 0.297,0.777 0.738,1.164 1.328,1.164 0.277,0 0.57,-0.125 0.875,-0.379 0.301,-0.25 0.527,-0.672 0.687,-1.27 0.235,-0.89 0.356,-2.156 0.36,-3.789 -0.004,-1.207 -0.129,-2.214 -0.375,-3.023 -0.192,-0.598 -0.434,-1.02 -0.727,-1.273 -0.215,-0.168 -0.473,-0.254 -0.773,-0.258 -0.356,0.004 -0.672,0.16 -0.946,0.476 -0.379,0.434 -0.632,1.114 -0.765,2.039 -0.137,0.93 -0.203,1.844 -0.203,2.743 z"
         style="fill:#000000;fill-opacity:1;fill-rule:nonzero;stroke:none"
         id="path286" />
      <g
         id="g288">
        <path
           d="m 615,322 v -7"
           style="fill:none;stroke:#000000;stroke-width:1;stroke-linecap:butt;stroke-linejoin:miter;stroke-miterlimit:10;stroke-dasharray:none;stroke-opacity:1"
           id="path290" />
      </g>
      <g
         id="g292">
        <path
           d="m 615,19 v 8"
           style="fill:none;stroke:#000000;stroke-width:1;stroke-linecap:butt;stroke-linejoin:miter;stroke-miterlimit:10;stroke-dasharray:none;stroke-opacity:1"
           id="path294" />
      </g>
      <path
         d="m 616.395,343.445 v 1.11 h -1.422 v 2.797 h -1.289 v -2.797 h -4.485 v -1 l 4.914,-7.016 h 0.86 v 6.906 z m -2.711,0 v -5.257 l -3.719,5.257 z"
         style="fill:#000000;fill-opacity:1;fill-rule:nonzero;stroke:none"
         id="path296" />
      <path
         d="m 617.527,342.117 c -0.004,-1.203 0.18,-2.246 0.547,-3.121 0.364,-0.871 0.848,-1.519 1.453,-1.949 0.469,-0.336 0.953,-0.504 1.453,-0.508 0.813,0.004 1.54,0.418 2.188,1.242 0.805,1.032 1.211,2.422 1.211,4.172 0,1.235 -0.18,2.277 -0.531,3.133 -0.36,0.863 -0.809,1.488 -1.356,1.871 -0.551,0.391 -1.082,0.582 -1.59,0.582 -1.011,0 -1.851,-0.594 -2.523,-1.789 -0.57,-1 -0.856,-2.211 -0.852,-3.633 z m 1.532,0.196 c 0,1.46 0.179,2.652 0.539,3.57 0.297,0.777 0.738,1.164 1.328,1.164 0.277,0 0.57,-0.125 0.875,-0.379 0.301,-0.25 0.527,-0.672 0.687,-1.27 0.235,-0.89 0.356,-2.156 0.36,-3.789 -0.004,-1.207 -0.129,-2.214 -0.375,-3.023 -0.192,-0.598 -0.434,-1.02 -0.727,-1.273 -0.215,-0.168 -0.473,-0.254 -0.773,-0.258 -0.356,0.004 -0.672,0.16 -0.946,0.476 -0.379,0.434 -0.632,1.114 -0.765,2.039 -0.137,0.93 -0.203,1.844 -0.203,2.743 z"
         style="fill:#000000;fill-opacity:1;fill-rule:nonzero;stroke:none"
         id="path298" />
      <g
         id="g300">
        <path
           d="M 87,19 H 615 V 322 H 87 Z"
           style="fill:none;stroke:#000000;stroke-width:1;stroke-linecap:butt;stroke-linejoin:miter;stroke-miterlimit:10;stroke-dasharray:none;stroke-opacity:1"
           id="path302" />
      </g>
      <path
         d="m 10.391,214.793 h 14.563 v 0.648 H 10.391 Z"
         style="fill:#000000;fill-opacity:1;fill-rule:nonzero;stroke:none"
         id="path304" />
      <path
         d="M 9.23,206.668 H 11 v 6.059 H 9.23 Z"
         style="fill:#000000;fill-opacity:1;fill-rule:nonzero;stroke:none"
         id="path306" />
      <path
         d="m 13.875,206.129 c 0.422,-0.289 0.895,-0.492 1.422,-0.617 0.535,-0.117 1.101,-0.18 1.695,-0.18 0.578,0 1.149,0.078 1.711,0.231 0.57,0.156 1.07,0.386 1.5,0.691 0.453,0.324 0.809,0.707 1.07,1.148 0.266,0.446 0.395,0.993 0.399,1.641 -0.004,0.336 -0.039,0.691 -0.106,1.066 -0.07,0.379 -0.226,0.758 -0.48,1.137 h 3.633 v 1.469 h -8.25 c -1.227,0 -2.192,-0.328 -2.891,-0.992 -0.695,-0.657 -1.043,-1.543 -1.047,-2.657 0.004,-0.722 0.129,-1.324 0.371,-1.8 0.25,-0.477 0.575,-0.856 0.973,-1.137 z m 5.438,1.242 c -0.293,-0.176 -0.629,-0.305 -1.008,-0.391 -0.371,-0.082 -0.778,-0.125 -1.219,-0.125 -0.367,0 -0.754,0.032 -1.16,0.09 -0.399,0.063 -0.754,0.172 -1.067,0.325 -0.312,0.171 -0.57,0.398 -0.773,0.683 -0.195,0.293 -0.297,0.668 -0.297,1.129 0,0.766 0.25,1.32 0.742,1.656 0.5,0.344 1.219,0.512 2.157,0.508 h 3.203 c 0.183,-0.371 0.304,-0.695 0.367,-0.976 0.062,-0.274 0.094,-0.594 0.094,-0.961 0,-0.454 -0.098,-0.848 -0.293,-1.18 -0.196,-0.324 -0.442,-0.578 -0.746,-0.758 z"
         style="fill:#000000;fill-opacity:1;fill-rule:nonzero;stroke:none"
         id="path308" />
      <path
         d="m 17.32,200.012 h 1.18 v 4.039 h -1.18 z"
         style="fill:#000000;fill-opacity:1;fill-rule:nonzero;stroke:none"
         id="path310" />
      <path
         d="m 16.266,198.121 c -1.203,0.004 -2.246,-0.18 -3.121,-0.547 -0.872,-0.363 -1.52,-0.847 -1.95,-1.453 -0.336,-0.469 -0.504,-0.953 -0.507,-1.453 0.003,-0.813 0.417,-1.539 1.242,-2.188 1.031,-0.804 2.422,-1.21 4.172,-1.21 1.234,0 2.277,0.179 3.132,0.531 0.864,0.359 1.489,0.808 1.871,1.355 0.391,0.551 0.583,1.082 0.583,1.59 0,1.012 -0.594,1.852 -1.79,2.524 -1,0.57 -2.21,0.855 -3.632,0.851 z m 0.195,-1.531 c 1.461,0 2.652,-0.18 3.57,-0.539 0.778,-0.297 1.164,-0.738 1.164,-1.328 0,-0.278 -0.125,-0.571 -0.379,-0.875 -0.25,-0.301 -0.671,-0.528 -1.269,-0.688 -0.891,-0.234 -2.156,-0.355 -3.789,-0.359 -1.207,0.004 -2.215,0.129 -3.024,0.375 -0.597,0.191 -1.019,0.433 -1.273,0.726 -0.168,0.215 -0.254,0.473 -0.258,0.774 0.004,0.355 0.16,0.672 0.477,0.945 0.433,0.379 1.113,0.633 2.039,0.766 0.929,0.136 1.844,0.203 2.742,0.203 z"
         style="fill:#000000;fill-opacity:1;fill-rule:nonzero;stroke:none"
         id="path312" />
      <path
         d="m 19.984,188.699 c 0.004,-0.242 0.09,-0.449 0.254,-0.617 0.172,-0.164 0.375,-0.246 0.614,-0.25 0.242,0.004 0.445,0.086 0.613,0.254 0.168,0.172 0.25,0.379 0.254,0.613 -0.004,0.242 -0.086,0.446 -0.254,0.614 -0.168,0.171 -0.371,0.257 -0.613,0.253 -0.243,0.004 -0.45,-0.082 -0.618,-0.253 -0.164,-0.168 -0.246,-0.372 -0.25,-0.614 z"
         style="fill:#000000;fill-opacity:1;fill-rule:nonzero;stroke:none"
         id="path314" />
      <path
         d="m 16.266,186.121 c -1.203,0.004 -2.246,-0.18 -3.121,-0.547 -0.872,-0.363 -1.52,-0.847 -1.95,-1.453 -0.336,-0.469 -0.504,-0.953 -0.507,-1.453 0.003,-0.813 0.417,-1.539 1.242,-2.188 1.031,-0.804 2.422,-1.21 4.172,-1.21 1.234,0 2.277,0.179 3.132,0.531 0.864,0.359 1.489,0.808 1.871,1.355 0.391,0.551 0.583,1.082 0.583,1.59 0,1.012 -0.594,1.852 -1.79,2.524 -1,0.57 -2.21,0.855 -3.632,0.851 z m 0.195,-1.531 c 1.461,0 2.652,-0.18 3.57,-0.539 0.778,-0.297 1.164,-0.738 1.164,-1.328 0,-0.278 -0.125,-0.571 -0.379,-0.875 -0.25,-0.301 -0.671,-0.528 -1.269,-0.688 -0.891,-0.234 -2.156,-0.355 -3.789,-0.359 -1.207,0.004 -2.215,0.129 -3.024,0.375 -0.597,0.191 -1.019,0.433 -1.273,0.726 -0.168,0.215 -0.254,0.473 -0.258,0.774 0.004,0.355 0.16,0.672 0.477,0.945 0.433,0.379 1.113,0.633 2.039,0.766 0.929,0.136 1.844,0.203 2.742,0.203 z"
         style="fill:#000000;fill-opacity:1;fill-rule:nonzero;stroke:none"
         id="path316" />
      <path
         d="m 11.945,176.824 -1.257,-2.578 v -0.258 h 8.945 c 0.597,0 0.969,-0.023 1.109,-0.074 0.149,-0.047 0.258,-0.148 0.336,-0.309 0.078,-0.152 0.125,-0.472 0.133,-0.953 H 21.5 v 3.985 h -0.289 c -0.008,-0.5 -0.051,-0.821 -0.129,-0.969 -0.07,-0.141 -0.172,-0.242 -0.305,-0.305 -0.125,-0.054 -0.507,-0.086 -1.144,-0.086 h -5.719 c -0.769,0 -1.266,0.028 -1.484,0.078 -0.164,0.04 -0.285,0.106 -0.367,0.2 -0.075,0.097 -0.114,0.215 -0.118,0.347 0.004,0.196 0.086,0.461 0.243,0.805 z"
         style="fill:#000000;fill-opacity:1;fill-rule:nonzero;stroke:none"
         id="path318" />
      <path
         d="m 10.688,163.527 h 0.289 c 0.07,0.688 0.207,1.25 0.41,1.684 0.207,0.437 0.523,0.867 0.941,1.289 0.426,0.426 0.895,0.777 1.41,1.055 0.52,0.281 1.137,0.515 1.848,0.699 -0.512,-0.746 -0.77,-1.5 -0.773,-2.258 0.003,-0.723 0.292,-1.351 0.875,-1.883 0.585,-0.531 1.335,-0.797 2.25,-0.797 0.886,0 1.695,0.27 2.421,0.805 0.887,0.649 1.329,1.504 1.329,2.563 0,0.726 -0.239,1.339 -0.719,1.843 -0.93,0.993 -2.137,1.489 -3.625,1.485 -0.946,0.004 -1.848,-0.188 -2.703,-0.571 -0.852,-0.378 -1.61,-0.921 -2.274,-1.628 -0.66,-0.704 -1.105,-1.379 -1.336,-2.028 -0.226,-0.644 -0.34,-1.246 -0.343,-1.805 z m 5.468,4.86 c 0.703,0.097 1.274,0.144 1.703,0.14 0.504,0.004 1.047,-0.089 1.629,-0.277 0.59,-0.184 1.055,-0.457 1.395,-0.824 0.25,-0.262 0.371,-0.586 0.367,-0.969 0.004,-0.453 -0.211,-0.855 -0.641,-1.215 -0.425,-0.351 -1.035,-0.531 -1.828,-0.535 -0.89,0.004 -1.66,0.18 -2.312,0.531 -0.649,0.356 -0.973,0.86 -0.977,1.508 0.004,0.199 0.043,0.41 0.125,0.637 0.086,0.226 0.266,0.562 0.539,1.004 z"
         style="fill:#000000;fill-opacity:1;fill-rule:nonzero;stroke:none"
         id="path320" />
      <path
         d="m 10.391,160.793 h 14.563 v 0.648 H 10.391 Z"
         style="fill:#000000;fill-opacity:1;fill-rule:nonzero;stroke:none"
         id="path322" />
      <path
         d="m 24.633,150.73 h 0.289 c -0.399,0.79 -0.863,1.446 -1.391,1.969 -0.758,0.75 -1.644,1.328 -2.672,1.735 -1.023,0.406 -2.089,0.609 -3.195,0.609 -1.613,0 -3.086,-0.398 -4.418,-1.195 -1.328,-0.797 -2.281,-1.836 -2.855,-3.118 h 0.328 c 0.355,0.641 0.84,1.168 1.453,1.579 0.617,0.414 1.398,0.722 2.336,0.921 0.945,0.208 1.93,0.309 2.953,0.305 1.117,0.004 2.129,-0.082 3.039,-0.258 0.719,-0.132 1.293,-0.297 1.73,-0.492 0.434,-0.187 0.852,-0.449 1.254,-0.777 0.399,-0.324 0.782,-0.75 1.149,-1.278 z"
         style="fill:#000000;fill-opacity:1;fill-rule:nonzero;stroke:none"
         id="path324" />
      <path
         d="m 17.953,143.379 v 4.101 l 1.672,0.719 c 0.414,0.18 0.723,0.27 0.922,0.266 0.164,0.004 0.305,-0.074 0.426,-0.231 0.125,-0.152 0.207,-0.484 0.238,-0.996 H 21.5 v 3.336 h -0.289 c -0.074,-0.437 -0.176,-0.726 -0.305,-0.859 -0.246,-0.266 -0.754,-0.559 -1.523,-0.883 l -8.719,-3.727 v -0.273 l 8.813,-3.687 c 0.711,-0.293 1.168,-0.563 1.378,-0.809 0.211,-0.238 0.333,-0.574 0.356,-1.012 H 21.5 v 4.18 h -0.289 c -0.016,-0.422 -0.086,-0.707 -0.211,-0.856 -0.117,-0.148 -0.266,-0.222 -0.437,-0.222 -0.227,0 -0.586,0.105 -1.086,0.312 z m -0.578,0.219 -4.281,1.797 4.281,1.843 z m -9.164,1.39 c 0,-0.414 0.148,-0.769 0.437,-1.062 0.297,-0.289 0.649,-0.434 1.055,-0.438 0.422,0.004 0.774,0.149 1.063,0.438 0.293,0.293 0.441,0.648 0.437,1.062 0.004,0.414 -0.144,0.766 -0.437,1.055 -0.289,0.293 -0.641,0.437 -1.063,0.437 -0.406,0 -0.758,-0.144 -1.055,-0.433 -0.289,-0.289 -0.437,-0.641 -0.437,-1.059 z m 0.539,0 c 0,0.27 0.094,0.496 0.277,0.676 0.188,0.188 0.414,0.277 0.676,0.277 0.266,0 0.488,-0.089 0.672,-0.277 0.191,-0.18 0.285,-0.406 0.281,-0.676 0.004,-0.261 -0.09,-0.488 -0.281,-0.675 -0.184,-0.184 -0.406,-0.274 -0.672,-0.278 -0.262,0.004 -0.488,0.094 -0.676,0.278 -0.183,0.187 -0.277,0.414 -0.277,0.675 z"
         style="fill:#000000;fill-opacity:1;fill-rule:nonzero;stroke:none"
         id="path326" />
      <path
         d="m 12.156,135.949 h 0.945 v 3.23 h -0.945 z"
         style="fill:#000000;fill-opacity:1;fill-rule:nonzero;stroke:none"
         id="path328" />
      <path
         d="m 8.637,135.051 c -0.567,-0.238 -1.008,-0.543 -1.321,-0.914 -0.308,-0.367 -0.464,-0.828 -0.464,-1.383 0,-0.676 0.222,-1.195 0.66,-1.563 0.336,-0.269 0.687,-0.406 1.058,-0.41 0.618,0.004 1.254,0.391 1.91,1.16 0.208,-0.515 0.5,-0.91 0.879,-1.179 0.379,-0.262 0.825,-0.395 1.336,-0.399 0.735,0.004 1.371,0.239 1.907,0.7 0.699,0.609 1.043,1.488 1.046,2.644 -0.003,0.57 -0.07,0.961 -0.21,1.164 -0.137,0.211 -0.29,0.313 -0.458,0.309 -0.117,0.004 -0.222,-0.043 -0.316,-0.145 -0.09,-0.094 -0.137,-0.215 -0.141,-0.355 0.004,-0.102 0.02,-0.207 0.051,-0.317 0.024,-0.07 0.102,-0.23 0.231,-0.484 0.133,-0.246 0.211,-0.418 0.234,-0.516 0.047,-0.152 0.07,-0.316 0.066,-0.496 0.004,-0.422 -0.16,-0.793 -0.492,-1.109 -0.328,-0.313 -0.718,-0.469 -1.168,-0.473 -0.328,0.004 -0.648,0.074 -0.965,0.219 -0.226,0.109 -0.406,0.23 -0.531,0.359 -0.164,0.18 -0.312,0.426 -0.453,0.735 -0.133,0.316 -0.203,0.632 -0.203,0.957 v 0.199 h -0.188 c -0.039,-0.328 -0.156,-0.656 -0.355,-0.988 -0.191,-0.328 -0.426,-0.571 -0.703,-0.723 -0.274,-0.148 -0.578,-0.223 -0.91,-0.227 -0.43,0.004 -0.774,0.141 -1.039,0.407 -0.262,0.273 -0.395,0.605 -0.399,1 0.004,0.648 0.348,1.187 1.039,1.621 z"
         style="fill:#000000;fill-opacity:1;fill-rule:nonzero;stroke:none"
         id="path330" />
      <path
         d="m 10.719,129.34 h -0.328 c 0.39,-0.789 0.851,-1.449 1.382,-1.977 0.762,-0.742 1.657,-1.316 2.676,-1.726 1.028,-0.403 2.094,-0.606 3.199,-0.61 1.618,0.004 3.086,0.399 4.418,1.192 1.329,0.797 2.282,1.84 2.856,3.121 h -0.289 c -0.363,-0.637 -0.848,-1.164 -1.457,-1.582 -0.613,-0.41 -1.391,-0.719 -2.336,-0.922 -0.942,-0.199 -1.926,-0.301 -2.957,-0.301 -1.106,0 -2.121,0.086 -3.039,0.258 -0.719,0.133 -1.293,0.297 -1.727,0.488 -0.429,0.199 -0.847,0.457 -1.25,0.778 -0.398,0.324 -0.781,0.754 -1.148,1.281 z"
         style="fill:#000000;fill-opacity:1;fill-rule:nonzero;stroke:none"
         id="path332" />
      <path
         d="m 342.168,373.555 -0.086,2.195 h -6.312 v -0.281 l 4.75,-6.328 h -2.344 c -0.508,0 -0.836,0.035 -0.992,0.097 -0.157,0.071 -0.286,0.192 -0.383,0.371 -0.145,0.262 -0.227,0.586 -0.242,0.969 h -0.313 l 0.047,-1.984 h 6 v 0.289 l -4.797,6.344 h 2.609 c 0.543,0.003 0.915,-0.043 1.114,-0.137 0.191,-0.09 0.347,-0.25 0.472,-0.481 0.079,-0.164 0.149,-0.515 0.211,-1.054 z"
         style="fill:#000000;fill-opacity:1;fill-rule:nonzero;stroke:none"
         id="path334" />
      <path
         d="m 350.418,378.883 v 0.289 c -0.789,-0.399 -1.445,-0.863 -1.969,-1.391 -0.75,-0.758 -1.328,-1.644 -1.734,-2.672 -0.406,-1.023 -0.61,-2.089 -0.61,-3.195 0,-1.613 0.399,-3.086 1.196,-4.418 0.797,-1.328 1.836,-2.281 3.117,-2.855 v 0.328 c -0.641,0.355 -1.168,0.84 -1.578,1.453 -0.414,0.617 -0.723,1.398 -0.922,2.336 -0.207,0.945 -0.309,1.93 -0.305,2.953 -0.004,1.117 0.082,2.129 0.258,3.039 0.133,0.719 0.297,1.293 0.492,1.73 0.188,0.434 0.45,0.852 0.778,1.254 0.324,0.399 0.75,0.782 1.277,1.149 z"
         style="fill:#000000;fill-opacity:1;fill-rule:nonzero;stroke:none"
         id="path336" />
      <path
         d="m 357.77,372.203 h -4.102 l -0.719,1.672 c -0.179,0.414 -0.269,0.723 -0.265,0.922 -0.004,0.164 0.074,0.305 0.23,0.426 0.152,0.125 0.484,0.207 0.996,0.238 v 0.289 h -3.336 v -0.289 c 0.438,-0.074 0.727,-0.176 0.86,-0.305 0.265,-0.246 0.558,-0.754 0.882,-1.523 l 3.727,-8.719 h 0.273 l 3.688,8.813 c 0.293,0.711 0.562,1.168 0.809,1.378 0.238,0.211 0.574,0.333 1.011,0.356 v 0.289 h -4.179 v -0.289 c 0.421,-0.016 0.707,-0.086 0.855,-0.211 0.148,-0.117 0.223,-0.266 0.223,-0.437 0,-0.227 -0.106,-0.586 -0.313,-1.086 z m -0.219,-0.578 -1.797,-4.281 -1.844,4.281 z m -1.391,-9.164 c 0.414,0 0.77,0.148 1.063,0.437 0.289,0.297 0.433,0.649 0.437,1.055 -0.004,0.422 -0.148,0.774 -0.437,1.063 -0.293,0.293 -0.649,0.441 -1.063,0.437 -0.414,0.004 -0.765,-0.144 -1.055,-0.437 -0.292,-0.289 -0.437,-0.641 -0.437,-1.063 0,-0.406 0.145,-0.758 0.434,-1.055 0.289,-0.289 0.64,-0.437 1.058,-0.437 z m 0,0.539 c -0.269,0 -0.496,0.094 -0.676,0.277 -0.187,0.188 -0.277,0.414 -0.277,0.676 0,0.266 0.09,0.488 0.277,0.672 0.18,0.191 0.407,0.285 0.676,0.281 0.262,0.004 0.488,-0.09 0.676,-0.281 0.184,-0.184 0.273,-0.406 0.277,-0.672 -0.004,-0.262 -0.093,-0.488 -0.277,-0.676 C 356.648,363.094 356.422,363 356.16,363 Z"
         style="fill:#000000;fill-opacity:1;fill-rule:nonzero;stroke:none"
         id="path338" />
      <path
         d="m 361.809,364.969 v -0.328 c 0.789,0.39 1.449,0.851 1.976,1.382 0.742,0.762 1.317,1.657 1.727,2.676 0.402,1.028 0.605,2.094 0.609,3.199 -0.004,1.618 -0.398,3.086 -1.191,4.418 -0.797,1.329 -1.84,2.282 -3.121,2.856 v -0.289 c 0.636,-0.363 1.164,-0.848 1.582,-1.457 0.41,-0.613 0.718,-1.391 0.922,-2.336 0.199,-0.942 0.3,-1.926 0.3,-2.957 0,-1.106 -0.086,-2.121 -0.258,-3.039 -0.132,-0.719 -0.296,-1.293 -0.488,-1.727 -0.199,-0.429 -0.457,-0.847 -0.777,-1.25 -0.324,-0.398 -0.754,-0.781 -1.281,-1.148 z"
         style="fill:#000000;fill-opacity:1;fill-rule:nonzero;stroke:none"
         id="path340" />
      <g
         id="g342">
        <path
           d="M 87.801,52.699 88,53 h 127 l 1.5,0.852 1.648,0.347 1.653,1.449 1.648,0.903 1.653,2.199 1.648,1.801 1.648,4.949 1.653,3.551 1.648,6.148 1.653,8.602 1.648,8.347 1.648,8.801 1.653,10.153 1.648,13.296 1.653,13.25 1.648,14.704 1.648,17.046 1.653,17.602 1.648,19.5 1.653,22.75 1.648,23.898 1.648,24.852 1.653,23.852 1.648,18.148 1.653,-25.5"
           style="fill:none;stroke:#9400d1;stroke-width:1;stroke-linecap:butt;stroke-linejoin:miter;stroke-miterlimit:10;stroke-dasharray:none;stroke-opacity:1"
           id="path344" />
      </g>
      <g
         id="g346">
        <path
           d="M 614.148,52.699 614,53 H 466 l -2,0.801 -1.648,0.347 -1.653,0.5 -1.648,0.551 -1.653,0.75 -1.648,0.903 -1.648,2.148 -1.653,1.648 -1.648,2 -1.653,3.403 -1.648,4.148 -1.648,3.949 -1.653,4.551 -1.648,5.25 -1.653,6.801 -1.648,6.898 -1.648,10.551 -1.653,9.301 -1.648,10.199 -1.653,13.199 -1.648,12.602 -1.648,13.551 -1.653,14.398 -1.648,16.102 -1.653,17.898 -1.648,16.852 -1.648,19.25 -1.653,18.949 -1.648,18.352 -1.653,19.25 -1.648,8.597 -1.648,-21.097"
           style="fill:none;stroke:#009c73;stroke-width:1;stroke-linecap:butt;stroke-linejoin:miter;stroke-miterlimit:10;stroke-dasharray:none;stroke-opacity:1"
           id="path348" />
      </g>
      <g
         id="g350">
        <path
           d="M 87,19 H 615 V 322 H 87 Z"
           style="fill:none;stroke:#000000;stroke-width:1;stroke-linecap:butt;stroke-linejoin:miter;stroke-miterlimit:10;stroke-dasharray:none;stroke-opacity:1"
           id="path352" />
      </g>
      <path
         d="m 274.078,312.184 c 0,11.32 -9.176,20.496 -20.496,20.496 -11.32,0 -20.5,-9.176 -20.5,-20.496 0,-11.321 9.18,-20.5 20.5,-20.5 11.32,0 20.496,9.179 20.496,20.5 z"
         style="fill:none;stroke:#ff0000;stroke-width:1.125;stroke-linecap:butt;stroke-linejoin:miter;stroke-miterlimit:4;stroke-dasharray:none;stroke-opacity:1"
         id="path354" />
      <path
         d="m 433.957,313.57 c 0,11.321 -9.176,20.496 -20.496,20.496 -11.32,0 -20.496,-9.175 -20.496,-20.496 0,-11.32 9.176,-20.496 20.496,-20.496 11.32,0 20.496,9.176 20.496,20.496 z"
         style="fill:none;stroke:#ff0000;stroke-width:1.125;stroke-linecap:butt;stroke-linejoin:miter;stroke-miterlimit:4;stroke-dasharray:none;stroke-opacity:1"
         id="path356" />
      <path
         d="M 108.102,68.176 H 194.09"
         style="fill:none;stroke:#000000;stroke-width:0.75;stroke-linecap:butt;stroke-linejoin:miter;stroke-miterlimit:4;stroke-dasharray:none;stroke-opacity:1"
         id="path358" />
      <g
         id="g360"
         transform="scale(-1)">
        <path
           d="m -186.59,-68.176 3,-3 -10.5,3 10.5,3 z"
           style="fill:#000000;fill-opacity:1;fill-rule:evenodd;stroke:#000000;stroke-width:0.8;stroke-linecap:butt;stroke-linejoin:miter;stroke-miterlimit:4;stroke-dasharray:none;stroke-opacity:1"
           id="path362" />
      </g>
      <path
         d="M 586.68,68.52 H 500.691"
         style="fill:none;stroke:#000000;stroke-width:0.75;stroke-linecap:butt;stroke-linejoin:miter;stroke-miterlimit:4;stroke-dasharray:none;stroke-opacity:1"
         id="path364" />
      <g
         id="g366">
        <path
           d="m 508.191,68.52 3,-3 -10.5,3 10.5,3 z"
           style="fill:#000000;fill-opacity:1;fill-rule:evenodd;stroke:#000000;stroke-width:0.8;stroke-linecap:butt;stroke-linejoin:miter;stroke-miterlimit:4;stroke-dasharray:none;stroke-opacity:1"
           id="path368" />
      </g>
    </g>
  </g>
</svg>
